<?xml version="1.0" encoding="utf-8"?>
<!-- Generator: Adobe Illustrator 16.0.0, SVG Export Plug-In . SVG Version: 6.00 Build 0)  -->
<!DOCTYPE svg PUBLIC "-//W3C//DTD SVG 1.1//EN" "http://www.w3.org/Graphics/SVG/1.1/DTD/svg11.dtd">
<svg version="1.1" id="Layer_1" xmlns="http://www.w3.org/2000/svg" xmlns:xlink="http://www.w3.org/1999/xlink" x="0px" y="0px"
	 width="325.672px" height="307.843px" viewBox="0 0 325.672 307.843" enable-background="new 0 0 325.672 307.843"
	 xml:space="preserve">
<g>
	<path d="M189.4,133.715c0.254,0,0.4,0.163,0.439,0.49c-0.094,0.304-0.424,0.918-0.988,1.843c-0.387,0.857-0.586,1.322-0.598,1.395
		l0.025,0.05v0.008h-0.174c0.082,0,0.168,0.012,0.257,0.033c0.044,0,1.12-0.285,3.229-0.854c0.603-0.228,1.939-0.341,4.009-0.341
		c0.454,0.111,0.681,0.324,0.681,0.64c0,0.304-0.18,0.473-0.539,0.506c-0.504-0.066-0.947-0.1-1.328-0.1h-0.365
		c-1.029,0-2.695,0.362-4.998,1.088c-0.868,0.188-1.303,0.335-1.303,0.439c-0.664,1.461-0.996,2.72-0.996,3.777
		c0,1.345,0.324,2.448,0.971,3.312c0.742,0.643,1.633,0.963,2.674,0.963c1.361,0,2.708-0.515,4.042-1.544
		c1.118-1.179,1.945-2.116,2.481-2.813c0.133-0.105,0.261-0.158,0.383-0.158c0.293,0,0.473,0.191,0.539,0.573
		c-0.094,0.536-1.137,1.729-3.129,3.577c-0.454,0.349-1.298,0.728-2.532,1.138c-0.736,0.183-1.268,0.273-1.594,0.273
		c-2.241-0.1-3.694-0.835-4.358-2.208c-0.459-0.93-0.688-1.956-0.688-3.079c0-0.875,0.299-2.137,0.896-3.785v-0.166
		c0,0.017-0.412-0.086-1.237-0.308c-0.68-0.382-1.021-0.777-1.021-1.187v-0.133c0-0.477,0.418-0.91,1.253-1.304h0.142
		c0.255,0.062,0.382,0.196,0.382,0.407c0,0.11-0.186,0.356-0.557,0.738l-0.041,0.158v0.083c0.05,0.32,0.504,0.512,1.361,0.572
		c0.149,0,0.349-0.356,0.598-1.07C188.285,134.72,188.979,133.715,189.4,133.715z"/>
	<path d="M198.779,145.22c0.664,0.249,0.996,0.554,0.996,0.913c-0.237,0.803-0.639,1.204-1.203,1.204
		c-0.409,0-0.678-0.282-0.805-0.847v-0.125c0-0.559,0.279-0.927,0.838-1.104C198.616,145.262,198.675,145.248,198.779,145.22z"/>
	<path d="M207.004,140.115c0.814,0,1.527,0.445,2.143,1.336c0.735,1.722,1.164,2.582,1.286,2.582c0.21-0.056,0.767-0.315,1.669-0.78
		c1.067-0.432,2.083-0.647,3.046-0.647c0.62,0.061,0.93,0.219,0.93,0.473v0.133c0,0.277-0.177,0.445-0.531,0.507
		c-0.255-0.022-0.468-0.033-0.64-0.033h-0.058c-1.189,0.1-2.438,0.542-3.743,1.328c-0.051,0.038-0.075,0.036-0.075-0.009v0.232
		c0,0.05,0.219,0.578,0.655,1.586c0.936,3.076,1.403,5.227,1.403,6.449v0.598c0,1.456-0.305,2.759-0.913,3.91
		c-0.426,0.968-0.913,1.68-1.461,2.133c-0.703,0.471-1.441,0.706-2.217,0.706h-0.1c-1.676,0-3.088-1.01-4.232-3.03
		c-0.416-0.764-0.623-1.604-0.623-2.523V154.4c0-2.628,1.303-5.323,3.91-8.085c0.459-0.432,1.117-0.957,1.975-1.577l0.051-0.124
		c-0.072-0.365-0.238-0.676-0.498-0.93h0.1c-0.006,0-0.194,0.387-0.564,1.162c-0.487,0.708-1.102,1.062-1.844,1.062h-0.232
		c-0.885,0-1.621-0.457-2.207-1.37c-0.128-0.299-0.191-0.642-0.191-1.029v-0.133c0-0.979,0.584-1.956,1.752-2.93
		C206.207,140.226,206.611,140.115,207.004,140.115z M204.688,154.766c0,1.384,0.352,2.482,1.054,3.296
		c0.736,1.051,1.666,1.577,2.789,1.577c1.589,0,2.695-1.439,3.32-4.316c0.105-0.477,0.158-1.038,0.158-1.686
		c0-1.677-0.481-3.954-1.444-6.831c-0.293-0.687-0.465-1.046-0.515-1.079c-0.697,0.166-1.768,1.15-3.213,2.955
		C205.405,150.679,204.688,152.707,204.688,154.766z M205.12,143.643v0.1c0,0.614,0.481,1.021,1.444,1.221h0.141
		c0.46,0,0.892-0.548,1.295-1.644c0.105-0.415,0.158-0.797,0.158-1.146c-0.177-0.764-0.473-1.146-0.889-1.146h-0.232
		c-0.503,0-1.031,0.42-1.585,1.262C205.23,142.688,205.12,143.14,205.12,143.643z"/>
	<path d="M217.056,145.22c0.664,0.249,0.996,0.554,0.996,0.913c-0.237,0.803-0.639,1.204-1.203,1.204
		c-0.409,0-0.678-0.282-0.805-0.847v-0.125c0-0.559,0.279-0.927,0.838-1.104C216.893,145.262,216.951,145.248,217.056,145.22z"/>
	<path d="M223.082,142.074c0.299,0.066,0.448,0.18,0.448,0.34v0.1c0,0.1-0.216,0.57-0.647,1.411
		c-0.255,0.631-0.382,0.991-0.382,1.079v-0.107c-0.089,0,0.1-0.208,0.564-0.623c0.515-0.337,0.921-0.506,1.22-0.506h0.332
		c0.736,0,1.231,0.481,1.486,1.444c-0.006-0.012-0.036-0.017-0.092-0.017h-0.033c0.056-0.039,0.225-0.282,0.507-0.73
		c0.521-0.443,1.026-0.664,1.519-0.664c0.682,0,1.24,0.39,1.678,1.17c0.21,0.382,0.467,0.703,0.771,0.963
		c0.714,0.504,1.236,0.756,1.568,0.756h0.1c0.93,0,1.812-0.415,2.648-1.245c0.73-0.598,1.236-1.165,1.52-1.702
		c0.376-0.714,0.725-1.07,1.045-1.07h0.033c0.244,0,0.416,0.16,0.516,0.481c-0.255,0.686-0.842,1.538-1.76,2.557
		c-1.395,1.328-2.585,1.992-3.57,1.992h-0.465c-0.957,0-1.953-0.534-2.988-1.603c-0.542-0.857-0.896-1.286-1.062-1.286h-0.066
		c-0.465,0-0.898,0.564-1.303,1.693c-0.376,0.863-0.645,1.295-0.805,1.295l-0.166,0.033c-0.432,0-0.673-0.573-0.723-1.719
		c-0.11-0.868-0.276-1.303-0.498-1.303c0-0.045-0.008-0.066-0.025-0.066h-0.033c-0.52,0-1.529,1.082-3.029,3.245
		c-0.299,0.315-0.528,0.474-0.689,0.474h-0.049c-0.35-0.045-0.523-0.235-0.523-0.573c0.57-1.665,1.272-3.334,2.108-5.005
		C222.484,142.345,222.767,142.074,223.082,142.074z"/>
	<path d="M240.53,140.215l0.448,0.017c0.653,0.005,1.109,0.293,1.369,0.863c0.066,0.149,0.214,0.774,0.44,1.876
		c0.415,0.968,1.146,1.452,2.191,1.452c1.002,0,2.108-0.581,3.32-1.743c0.232-0.055,0.404-0.083,0.515-0.083
		c0.26,0.122,0.391,0.279,0.391,0.474c0,0.282-0.269,0.614-0.806,0.996c-0.714,0.625-1.633,1.082-2.756,1.369
		c-0.243,0.022-0.432,0.033-0.564,0.033h-0.133c-1.483,0-2.554-0.672-3.212-2.017l-0.066-0.042c0.016,0-0.161,0.335-0.531,1.005
		c-0.836,1.123-1.746,1.685-2.731,1.685h-0.033c-0.753,0-1.325-0.42-1.718-1.262c-0.078-0.237-0.117-0.451-0.117-0.639
		c0.033-0.969,0.51-1.939,1.428-2.914C238.701,140.588,239.557,140.231,240.53,140.215z M237.617,144.033
		c0,0.559,0.24,0.91,0.722,1.054h0.166c0.786,0,1.585-0.844,2.399-2.531c0.232-0.564,0.348-0.946,0.348-1.146v-0.199
		c0,0.021-0.171,0.024-0.514,0.008c-1.162-0.021-2.073,0.557-2.731,1.735C237.747,143.33,237.617,143.689,237.617,144.033z"/>
	<path d="M248.681,139.468c1.151,0.138,1.727,0.684,1.727,1.635c0,0.647-0.365,1.456-1.096,2.424v-0.116
		c0.421,0.471,0.604,0.706,0.548,0.706v-0.158l0.323,0.158c0.022,0,0.733-0.294,2.134-0.88c0.714-0.249,1.627-0.479,2.739-0.689
		c0.31,0.089,0.465,0.302,0.465,0.64c-0.205,0.365-0.542,0.548-1.013,0.548c-1.594,0.37-2.806,0.838-3.636,1.402l0.49,1.561
		l0.082,0.457h0.051l-0.066-0.142l-0.033,0.066l0.016,0.025c-0.038,0.332-0.027,0.432,0.033,0.299h-0.016
		c-0.321,1.25-0.742,2.036-1.262,2.357c-0.327,0.376-0.985,0.658-1.977,0.847l-0.323,0.157v-0.033
		c0.139-0.066,0.108-0.086-0.091-0.058c-0.371-0.05-0.513-0.045-0.424,0.017v-0.042c-0.786-0.343-1.179-0.835-1.179-1.478
		c0-1.184,0.899-2.554,2.698-4.108c0.104-0.095,0.157-0.163,0.157-0.208v-0.033c0-0.061-0.315-0.412-0.946-1.054
		c-0.708-0.836-1.102-1.52-1.179-2.051c0-0.171,0.011-0.257,0.033-0.257c0,0.149-0.011,0.202-0.033,0.157
		c0-0.465,0.157-0.943,0.474-1.436C247.759,139.705,248.193,139.468,248.681,139.468z M247.353,149.071v0.249
		c0.044,0.249,0.174,0.374,0.391,0.374c0.642,0,1.319-0.362,2.033-1.088c0.276-0.393,0.415-0.93,0.415-1.61
		c-0.122-0.78-0.269-1.17-0.44-1.17c-0.531,0.266-1.178,0.913-1.941,1.942C247.505,148.167,247.353,148.602,247.353,149.071z
		 M248.05,141.394v0.074c0,0.354,0.207,0.775,0.623,1.262l-0.018-0.008h-0.124c0.509-0.72,0.764-1.281,0.764-1.686
		c0-0.232-0.202-0.385-0.606-0.456C248.407,140.58,248.193,140.851,248.05,141.394z"/>
	<path d="M258.201,140.215l0.448,0.017c0.653,0.005,1.109,0.293,1.369,0.863c0.066,0.149,0.214,0.774,0.44,1.876
		c0.415,0.968,1.146,1.452,2.191,1.452c1.002,0,2.108-0.581,3.32-1.743c0.232-0.055,0.404-0.083,0.515-0.083
		c0.26,0.122,0.391,0.279,0.391,0.474c0,0.282-0.269,0.614-0.806,0.996c-0.714,0.625-1.633,1.082-2.756,1.369
		c-0.243,0.022-0.432,0.033-0.564,0.033h-0.133c-1.483,0-2.554-0.672-3.212-2.017l-0.066-0.042c0.016,0-0.161,0.335-0.531,1.005
		c-0.836,1.123-1.746,1.685-2.731,1.685h-0.033c-0.753,0-1.325-0.42-1.718-1.262c-0.078-0.237-0.117-0.451-0.117-0.639
		c0.033-0.969,0.51-1.939,1.428-2.914C256.372,140.588,257.228,140.231,258.201,140.215z M255.288,144.033
		c0,0.559,0.24,0.91,0.722,1.054h0.166c0.786,0,1.585-0.844,2.399-2.531c0.232-0.564,0.348-0.946,0.348-1.146v-0.199
		c0,0.021-0.171,0.024-0.514,0.008c-1.162-0.021-2.073,0.557-2.731,1.735C255.418,143.33,255.288,143.689,255.288,144.033z"/>
	<path d="M270.553,140.438c0.326,0.056,0.489,0.238,0.489,0.548c-0.1,0.222-0.396,0.694-0.888,1.42
		c-0.736,1.682-1.104,2.941-1.104,3.776c0.056,0.952,0.341,1.547,0.855,1.785c0.089,0.05,0.166,0.074,0.232,0.074h0.133
		c0.554,0,1.281-0.359,2.184-1.079c0.658-0.652,1.441-1.696,2.349-3.129c0.338-0.759,0.684-1.138,1.038-1.138
		c0.343,0.095,0.514,0.274,0.514,0.54v0.1c-0.094,0.31-0.658,1.223-1.693,2.739c-0.525,0.868-1.399,1.718-2.623,2.548
		c-0.426,0.238-1.021,0.404-1.784,0.498h-0.05c-0.841,0-1.533-0.525-2.075-1.577c-0.127-0.276-0.19-0.694-0.19-1.253
		c0-1.052,0.271-2.172,0.812-3.362l0.217-0.688v-0.166c0,0.094,0.047,0.141,0.141,0.141h-0.066c-0.249,0-0.723,0.149-1.42,0.448
		c-0.293,0.111-0.646,0.346-1.062,0.706c-0.426-0.05-0.68-0.244-0.764-0.581l0.308-0.498c0.116-0.133,0.432-0.305,0.946-0.515
		c0.73-0.228,1.799-0.673,3.204-1.337H270.553z"/>
	<path d="M276.139,142.547h0.059c0.348,0.072,0.522,0.252,0.522,0.54v0.232c-0.282,0.852-0.551,1.395-0.806,1.627
		c-0.348,0.625-0.522,1.189-0.522,1.693c0,0.237,0.186,0.356,0.556,0.356c1.019,0,2.443-0.824,4.275-2.474
		c0.056-0.138,0.227-0.285,0.515-0.439c0.421-0.398,0.874-0.877,1.361-1.437h0.341c0.326,0.045,0.489,0.213,0.489,0.507v0.066
		c0,0.183-0.271,0.548-0.813,1.096c-0.271,0.349-0.634,0.681-1.088,0.996c-2.036,1.864-3.752,2.797-5.146,2.797
		c-1.067,0-1.602-0.501-1.602-1.502c0-0.432,0.149-1.068,0.448-1.909c0.675-1.39,1.023-2.084,1.046-2.084
		C275.773,142.58,275.896,142.559,276.139,142.547z M278.338,138.629c0.283,0,0.451,0.196,0.507,0.59
		c0,0.442-0.257,0.764-0.772,0.963c-0.077,0.055-0.257,0.097-0.539,0.124c-0.487-0.1-0.73-0.335-0.73-0.705
		c0-0.443,0.396-0.753,1.188-0.93C278.09,138.643,278.205,138.629,278.338,138.629z"/>
	<path d="M284.979,140.937c0.913,0,1.53,0.407,1.852,1.221c0.608,1.156,1.126,2.078,1.552,2.764l0.108,0.066
		c0.027,0,0.304-0.269,0.83-0.805c0.901-0.83,1.861-1.378,2.88-1.644c0.21-0.05,0.421-0.086,0.631-0.108
		c0.349,0.083,0.522,0.274,0.522,0.573c0,0.276-0.547,0.542-1.643,0.797c-0.51,0.154-1.221,0.678-2.134,1.568
		c-0.293,0.332-0.44,0.54-0.44,0.623v0.1c0,0.133,0.211,0.545,0.631,1.236c0,0.122,0.46,1.107,1.379,2.955
		c0.266,0.593,0.467,1.271,0.605,2.034c0.315,0.946,0.473,1.95,0.473,3.013c-0.088,1.926-0.201,3.124-0.34,3.595
		c-0.216,1.106-0.442,1.887-0.681,2.341c-0.343,0.592-0.833,1.286-1.47,2.083c-0.664,0.388-1.319,0.581-1.967,0.581
		c-1.035,0-1.948-0.42-2.739-1.262c-0.26-0.276-0.717-1.117-1.37-2.523c-0.276-0.774-0.414-1.618-0.414-2.531
		c0-0.487,0.138-1.348,0.414-2.582c0.066-0.088,0.139-0.473,0.217-1.153c0.808-2.369,1.693-4.402,2.656-6.102
		c0.73-1.129,1.096-1.734,1.096-1.817v-0.042c-0.066-0.315-0.41-0.885-1.029-1.71h0.148l-0.414,1.104
		c-0.543,1.129-0.961,1.748-1.254,1.859c-0.404,0.282-0.847,0.423-1.328,0.423h-0.166c-0.863,0-1.577-0.465-2.142-1.395
		c-0.105-0.188-0.157-0.423-0.157-0.705v-0.166c0-1.467,0.694-2.775,2.083-3.927C283.943,141.092,284.48,140.937,284.979,140.937z
		 M282.43,145.062v0.066c0,0.664,0.222,1.126,0.664,1.386c0.139,0.089,0.313,0.133,0.523,0.133h0.1c0.681,0,1.215-0.617,1.602-1.851
		c0.1-0.128,0.205-0.573,0.316-1.337c-0.089-1.007-0.255-1.511-0.498-1.511c0-0.044-0.042-0.066-0.125-0.066h-0.199
		c-0.581,0-1.176,0.454-1.785,1.361C282.629,143.937,282.43,144.542,282.43,145.062z M284.389,157.68
		c0,1.494,0.551,2.999,1.652,4.516c0.476,0.548,1.062,0.821,1.76,0.821c1.229,0,2.136-0.99,2.723-2.972
		c0.393-1.2,0.59-2.554,0.59-4.059c0-2.685-0.878-5.562-2.632-8.633c-0.1-0.194-0.166-0.291-0.199-0.291
		c-0.116,0.022-0.548,0.759-1.295,2.208c-0.73,1.517-1.322,2.925-1.776,4.226C284.663,155.333,284.389,156.728,284.389,157.68z"/>
	<path d="M292.881,142.314h0.059c0.348,0.072,0.522,0.252,0.522,0.54v0.232c-0.282,0.852-0.551,1.395-0.806,1.627
		c-0.348,0.625-0.522,1.189-0.522,1.693c0,0.237,0.175,0.356,0.522,0.356c1.047,0,2.482-0.824,4.309-2.474
		c0.056-0.138,0.227-0.285,0.515-0.439c0.421-0.398,0.874-0.877,1.361-1.437h0.341c0.326,0.045,0.489,0.213,0.489,0.507v0.066
		c0,0.183-0.271,0.551-0.813,1.104c-0.83,1.013-1.245,1.906-1.245,2.682c0,0.237,0.175,0.356,0.522,0.356
		c1.047,0,2.482-0.824,4.309-2.474c0.056-0.138,0.227-0.285,0.515-0.439c0.421-0.398,0.874-0.877,1.361-1.437h0.341
		c0.326,0.045,0.489,0.213,0.489,0.507v0.066c0,0.183-0.271,0.548-0.813,1.096c-0.271,0.349-0.634,0.681-1.088,0.996
		c-2.036,1.864-3.752,2.797-5.146,2.797c-1.067,0-1.602-0.501-1.602-1.502c0-0.261,0.02-0.462,0.059-0.606
		c-1.439,1.162-2.74,1.743-3.902,1.743c-1.09,0-1.635-0.501-1.635-1.502c0-0.432,0.149-1.068,0.448-1.909
		c0.675-1.39,1.023-2.084,1.046-2.084C292.516,142.348,292.638,142.326,292.881,142.314z"/>
	<path d="M308.137,139.916h0.149c0.813,0.11,1.221,0.418,1.221,0.921c-0.122,0.709-0.764,1.439-1.926,2.191
		c-0.271,0.139-1.129,0.429-2.574,0.872c-0.033,0.021-0.049,0.047-0.049,0.074v0.033c0.232,0.77,0.595,1.295,1.087,1.577
		c0.498,0.271,1.085,0.407,1.76,0.407h0.299c2.191,0,4.217-0.936,6.076-2.806c0.276-0.498,0.542-0.747,0.797-0.747h0.033
		c0.238,0,0.421,0.163,0.548,0.489c-0.155,0.614-1.099,1.556-2.83,2.822c-1.766,0.792-3.13,1.188-4.093,1.188
		c-0.105,0-0.401,0.021-0.888,0.066c-0.482,0-1.227-0.186-2.233-0.557c-0.604-0.481-1.073-1.004-1.411-1.568
		c-0.122,0-0.229-0.362-0.324-1.088c0-0.403,0.316-1.084,0.947-2.042c0.951-0.896,1.712-1.405,2.282-1.527
		C307.417,140.019,307.794,139.916,308.137,139.916z M305.29,142.788c0-0.012-0.036-0.017-0.108-0.017h0.033
		c0.321,0,0.916-0.202,1.784-0.606c0.842-0.631,1.262-1.046,1.262-1.245c0-0.038-0.03-0.058-0.091-0.058h-0.075
		c-1.09,0.271-1.908,0.744-2.457,1.419C305.405,142.553,305.29,142.722,305.29,142.788z"/>
	<path d="M186.32,172.547h0.059c0.348,0.072,0.522,0.252,0.522,0.54v0.232c-0.282,0.852-0.551,1.395-0.806,1.627
		c-0.348,0.625-0.522,1.189-0.522,1.693c0,0.237,0.186,0.356,0.556,0.356c1.019,0,2.443-0.824,4.275-2.474
		c0.056-0.138,0.227-0.285,0.515-0.439c0.421-0.398,0.874-0.877,1.361-1.437h0.341c0.326,0.045,0.489,0.213,0.489,0.507v0.066
		c0,0.183-0.271,0.548-0.813,1.096c-0.271,0.349-0.634,0.681-1.088,0.996c-2.036,1.864-3.752,2.797-5.146,2.797
		c-1.067,0-1.602-0.501-1.602-1.502c0-0.432,0.149-1.068,0.448-1.909c0.675-1.39,1.023-2.084,1.046-2.084
		C185.955,172.58,186.077,172.559,186.32,172.547z M188.52,168.629c0.283,0,0.451,0.196,0.507,0.59c0,0.442-0.257,0.764-0.772,0.963
		c-0.077,0.055-0.257,0.097-0.539,0.124c-0.487-0.1-0.73-0.335-0.73-0.705c0-0.443,0.396-0.753,1.188-0.93
		C188.271,168.643,188.387,168.629,188.52,168.629z"/>
	<path d="M192.371,169.468c1.151,0.138,1.727,0.684,1.727,1.635c0,0.647-0.365,1.456-1.096,2.424v-0.116
		c0.421,0.471,0.604,0.706,0.548,0.706v-0.158l0.323,0.158c0.022,0,0.733-0.294,2.134-0.88c0.714-0.249,1.627-0.479,2.739-0.689
		c0.31,0.089,0.465,0.302,0.465,0.64c-0.205,0.365-0.542,0.548-1.013,0.548c-1.594,0.37-2.806,0.838-3.636,1.402l0.49,1.561
		l0.082,0.457h0.051l-0.066-0.142l-0.033,0.066l0.016,0.025c-0.038,0.332-0.027,0.432,0.033,0.299h-0.016
		c-0.321,1.25-0.742,2.036-1.262,2.357c-0.327,0.376-0.985,0.658-1.977,0.847l-0.323,0.157v-0.033
		c0.139-0.066,0.108-0.086-0.091-0.058c-0.371-0.05-0.513-0.045-0.424,0.017v-0.042c-0.786-0.343-1.179-0.835-1.179-1.478
		c0-1.184,0.899-2.554,2.698-4.108c0.104-0.095,0.157-0.163,0.157-0.208v-0.033c0-0.061-0.315-0.412-0.946-1.054
		c-0.708-0.836-1.102-1.52-1.179-2.051c0-0.171,0.011-0.257,0.033-0.257c0,0.149-0.011,0.202-0.033,0.157
		c0-0.465,0.157-0.943,0.474-1.436C191.449,169.705,191.884,169.468,192.371,169.468z M191.043,179.071v0.249
		c0.044,0.249,0.174,0.374,0.391,0.374c0.642,0,1.319-0.362,2.033-1.088c0.276-0.393,0.415-0.93,0.415-1.61
		c-0.122-0.78-0.269-1.17-0.44-1.17c-0.531,0.266-1.178,0.913-1.941,1.942C191.195,178.167,191.043,178.602,191.043,179.071z
		 M191.74,171.394v0.074c0,0.354,0.207,0.775,0.623,1.262l-0.018-0.008h-0.124c0.509-0.72,0.764-1.281,0.764-1.686
		c0-0.232-0.202-0.385-0.606-0.456C192.098,170.58,191.884,170.851,191.74,171.394z"/>
	<path d="M205.271,172.091c1.04,0,1.944,0.356,2.714,1.07l0.157,0.025c0.033,0,0.451-0.152,1.254-0.457
		c0.687-0.138,1.635-0.24,2.848-0.307c0.603,0.055,0.904,0.269,0.904,0.639c0,0.261-0.163,0.418-0.49,0.474
		c-0.304,0-0.688-0.012-1.153-0.033c-1.096,0-2.128,0.266-3.097,0.797c-0.033,0-0.068,0.429-0.107,1.286
		c-0.432,1.799-1.192,2.698-2.283,2.698c-0.924-0.122-1.386-0.567-1.386-1.337c0-0.603,0.329-1.295,0.987-2.075l1.171-0.963v-0.116
		c0-0.1-0.186-0.26-0.556-0.481c-0.283-0.138-0.56-0.207-0.83-0.207h-0.033c-0.836,0-1.412,0.352-1.727,1.054
		c-0.039,0.183-0.059,0.291-0.059,0.324c0.155,1.638,0.232,3.511,0.232,5.619c0,2.164-0.324,4.289-0.971,6.375
		c-0.443,1.234-0.908,1.948-1.395,2.142c-0.438,0.282-0.848,0.424-1.229,0.424c-0.238,0-0.484-0.196-0.739-0.59
		c-0.222-0.343-0.332-0.968-0.332-1.876c0-1.577,0.534-4.056,1.603-7.438c0.598-1.87,0.94-3.052,1.029-3.544
		c0.37-0.946,0.556-1.713,0.556-2.3c0-0.21,0.26-0.379,0.78-0.506c0.044,0,0.321-0.149,0.83-0.448
		C204.382,172.174,204.821,172.091,205.271,172.091z M200.298,186.601c0.044,0.907,0.133,1.361,0.266,1.361
		c0.299-0.078,0.515-0.232,0.647-0.465c0.349-0.56,0.725-1.81,1.129-3.752l0.232-1.437c0,0.128-0.022,0.191-0.066,0.191
		c0.133-0.892,0.199-1.779,0.199-2.665v-0.232c0-1.604-0.05-2.576-0.149-2.913c0.022,0-0.169,0.769-0.572,2.308
		c-0.62,1.826-1.062,3.47-1.328,4.931C200.417,184.924,200.298,185.814,200.298,186.601z M205.909,176.847v0.166
		c0,0.149,0.061,0.225,0.183,0.225c0.271-0.122,0.489-0.338,0.655-0.647c0.271-0.56,0.407-1.026,0.407-1.403
		c0-0.017,0-0.027,0-0.033c-0.338,0.1-0.675,0.401-1.013,0.905C205.986,176.329,205.909,176.593,205.909,176.847z"/>
	<path d="M216.874,170.438c0.326,0.056,0.489,0.238,0.489,0.548c-0.1,0.222-0.396,0.694-0.888,1.42
		c-0.736,1.682-1.104,2.941-1.104,3.776c0.056,0.952,0.341,1.547,0.855,1.785c0.089,0.05,0.166,0.074,0.232,0.074h0.133
		c0.554,0,1.281-0.359,2.184-1.079c0.658-0.652,1.441-1.696,2.349-3.129c0.338-0.759,0.684-1.138,1.038-1.138
		c0.343,0.095,0.514,0.274,0.514,0.54v0.1c-0.094,0.31-0.658,1.223-1.693,2.739c-0.525,0.868-1.399,1.718-2.623,2.548
		c-0.426,0.238-1.021,0.404-1.784,0.498h-0.05c-0.841,0-1.533-0.525-2.075-1.577c-0.127-0.276-0.19-0.694-0.19-1.253
		c0-1.052,0.271-2.172,0.812-3.362l0.217-0.688v-0.166c0,0.094,0.047,0.141,0.141,0.141h-0.066c-0.249,0-0.723,0.149-1.42,0.448
		c-0.293,0.111-0.646,0.346-1.062,0.706c-0.426-0.05-0.68-0.244-0.764-0.581l0.308-0.498c0.116-0.133,0.432-0.305,0.946-0.515
		c0.73-0.228,1.799-0.673,3.204-1.337H216.874z"/>
	<path d="M225.73,169.916h0.149c0.813,0.11,1.221,0.418,1.221,0.921c-0.122,0.709-0.764,1.439-1.926,2.191
		c-0.271,0.139-1.129,0.429-2.574,0.872c-0.033,0.021-0.049,0.047-0.049,0.074v0.033c0.232,0.77,0.595,1.295,1.087,1.577
		c0.498,0.271,1.085,0.407,1.76,0.407h0.299c2.191,0,4.217-0.936,6.076-2.806c0.276-0.498,0.542-0.747,0.797-0.747h0.033
		c0.238,0,0.421,0.163,0.548,0.489c-0.155,0.614-1.099,1.556-2.83,2.822c-1.766,0.792-3.13,1.188-4.093,1.188
		c-0.105,0-0.401,0.021-0.888,0.066c-0.482,0-1.227-0.186-2.233-0.557c-0.604-0.481-1.073-1.004-1.411-1.568
		c-0.122,0-0.229-0.362-0.324-1.088c0-0.403,0.316-1.084,0.947-2.042c0.951-0.896,1.712-1.405,2.282-1.527
		C225.011,170.019,225.388,169.916,225.73,169.916z M222.884,172.788c0-0.012-0.036-0.017-0.108-0.017h0.033
		c0.321,0,0.916-0.202,1.784-0.606c0.842-0.631,1.262-1.046,1.262-1.245c0-0.038-0.03-0.058-0.091-0.058h-0.075
		c-1.09,0.271-1.908,0.744-2.457,1.419C222.999,172.553,222.884,172.722,222.884,172.788z"/>
	<path d="M232.379,169.468c1.151,0.138,1.727,0.684,1.727,1.635c0,0.647-0.365,1.456-1.096,2.424v-0.116
		c0.421,0.471,0.604,0.706,0.548,0.706v-0.158l0.323,0.158c0.022,0,0.733-0.294,2.134-0.88c0.714-0.249,1.627-0.479,2.739-0.689
		c0.31,0.089,0.465,0.302,0.465,0.64c-0.205,0.365-0.542,0.548-1.013,0.548c-1.594,0.37-2.806,0.838-3.636,1.402l0.49,1.561
		l0.082,0.457h0.051l-0.066-0.142l-0.033,0.066l0.016,0.025c-0.038,0.332-0.027,0.432,0.033,0.299h-0.016
		c-0.321,1.25-0.742,2.036-1.262,2.357c-0.327,0.376-0.985,0.658-1.977,0.847l-0.323,0.157v-0.033
		c0.139-0.066,0.108-0.086-0.091-0.058c-0.371-0.05-0.513-0.045-0.424,0.017v-0.042c-0.786-0.343-1.179-0.835-1.179-1.478
		c0-1.184,0.899-2.554,2.698-4.108c0.104-0.095,0.157-0.163,0.157-0.208v-0.033c0-0.061-0.315-0.412-0.946-1.054
		c-0.708-0.836-1.102-1.52-1.179-2.051c0-0.171,0.011-0.257,0.033-0.257c0,0.149-0.011,0.202-0.033,0.157
		c0-0.465,0.157-0.943,0.474-1.436C231.457,169.705,231.892,169.468,232.379,169.468z M231.051,179.071v0.249
		c0.044,0.249,0.174,0.374,0.391,0.374c0.642,0,1.319-0.362,2.033-1.088c0.276-0.393,0.415-0.93,0.415-1.61
		c-0.122-0.78-0.269-1.17-0.44-1.17c-0.531,0.266-1.178,0.913-1.941,1.942C231.203,178.167,231.051,178.602,231.051,179.071z
		 M231.748,171.394v0.074c0,0.354,0.207,0.775,0.623,1.262l-0.018-0.008h-0.124c0.509-0.72,0.764-1.281,0.764-1.686
		c0-0.232-0.202-0.385-0.606-0.456C232.105,170.58,231.892,170.851,231.748,171.394z"/>
	<path d="M238.861,172.547h0.059c0.348,0.072,0.522,0.252,0.522,0.54v0.232c-0.282,0.852-0.551,1.395-0.806,1.627
		c-0.348,0.625-0.522,1.189-0.522,1.693c0,0.237,0.186,0.356,0.556,0.356c1.019,0,2.443-0.824,4.275-2.474
		c0.056-0.138,0.227-0.285,0.515-0.439c0.421-0.398,0.874-0.877,1.361-1.437h0.341c0.326,0.045,0.489,0.213,0.489,0.507v0.066
		c0,0.183-0.271,0.548-0.813,1.096c-0.271,0.349-0.634,0.681-1.088,0.996c-2.036,1.864-3.752,2.797-5.146,2.797
		c-1.067,0-1.602-0.501-1.602-1.502c0-0.432,0.149-1.068,0.448-1.909c0.675-1.39,1.023-2.084,1.046-2.084
		C238.496,172.58,238.618,172.559,238.861,172.547z M241.061,168.629c0.283,0,0.451,0.196,0.507,0.59
		c0,0.442-0.257,0.764-0.772,0.963c-0.077,0.055-0.257,0.097-0.539,0.124c-0.487-0.1-0.73-0.335-0.73-0.705
		c0-0.443,0.396-0.753,1.188-0.93C240.812,168.643,240.928,168.629,241.061,168.629z"/>
	<path d="M253.57,162.113c0.669,0,1.004,0.343,1.004,1.029c0.022,0,0.033,0.094,0.033,0.282c-0.089,1.14-0.166,1.95-0.232,2.432
		c0-0.127,0.011-0.19,0.033-0.19c0,1.101-0.647,3.522-1.942,7.263c-0.498,0.958-0.747,1.517-0.747,1.677v0.059
		c0.354,0.93,1.226,1.405,2.615,1.428h0.299c2.191,0,4.217-0.936,6.076-2.806c0.276-0.498,0.542-0.747,0.797-0.747h0.033
		c0.237,0,0.42,0.163,0.547,0.489c-0.154,0.614-1.098,1.556-2.83,2.822c-1.766,0.792-3.129,1.188-4.092,1.188
		c-0.105,0-0.401,0.021-0.889,0.066c-0.442,0-1.159-0.172-2.15-0.515c-0.26-0.133-0.611-0.438-1.054-0.913
		c0.089,0.038,0.053,0.152-0.108,0.34c-0.769,1.058-1.814,1.749-3.137,2.075c-0.316,0.139-0.692,0.196-1.129,0.175
		c-1.578,0.033-2.641-0.726-3.188-2.274c-0.028-0.111-0.042-0.219-0.042-0.324v-0.365c0.022-1.001,0.573-2.056,1.651-3.162
		c0.709-0.587,1.686-0.952,2.931-1.096l0.847,0.041c0.359,0.095,0.886,0.235,1.577,0.424c-0.537,0.459-0.758,0.445-0.664-0.042
		c0-0.021-0.011-0.146-0.033-0.373c0.039-1.644,0.388-3.323,1.046-5.039l1.037-2.166c0.388-0.775,0.803-1.34,1.246-1.693
		C253.305,162.141,253.459,162.113,253.57,162.113z M244.58,175.303c0,0.941,0.501,1.594,1.502,1.959
		c0.232,0.039,0.401,0.059,0.507,0.059c1.306-0.083,2.481-0.772,3.528-2.067c0.171-0.332,0.257-0.548,0.257-0.647
		c-0.193-0.586-0.359-1.322-0.498-2.208c0-0.005-0.21-0.033-0.631-0.083c-0.216-0.149-0.479-0.224-0.788-0.224
		c-1.732,0-2.994,0.86-3.785,2.581C244.61,174.966,244.58,175.176,244.58,175.303z M250.988,169.907c0-0.127,0.011-0.19,0.033-0.19
		c0,0.204-0.033,0.738-0.1,1.602c0.116,1.212,0.18,1.818,0.191,1.818c0.044,0,0.113-0.146,0.207-0.44
		c0.459-0.88,1.118-3.032,1.976-6.458l0.166-2.839c-0.022-0.071-0.009-0.107,0.042-0.107c-0.194,0.055-0.706,1.01-1.536,2.863
		C251.464,167.434,251.138,168.685,250.988,169.907z"/>
	<path d="M264.983,169.916h0.149c0.813,0.11,1.221,0.418,1.221,0.921c-0.122,0.709-0.764,1.439-1.926,2.191
		c-0.271,0.139-1.129,0.429-2.574,0.872c-0.033,0.021-0.049,0.047-0.049,0.074v0.033c0.232,0.77,0.595,1.295,1.087,1.577
		c0.498,0.271,1.085,0.407,1.76,0.407h0.299c2.191,0,4.217-0.936,6.076-2.806c0.276-0.498,0.542-0.747,0.797-0.747h0.033
		c0.238,0,0.421,0.163,0.548,0.489c-0.155,0.614-1.099,1.556-2.83,2.822c-1.766,0.792-3.13,1.188-4.093,1.188
		c-0.105,0-0.401,0.021-0.888,0.066c-0.482,0-1.227-0.186-2.233-0.557c-0.604-0.481-1.073-1.004-1.411-1.568
		c-0.122,0-0.229-0.362-0.324-1.088c0-0.403,0.316-1.084,0.947-2.042c0.951-0.896,1.712-1.405,2.282-1.527
		C264.264,170.019,264.641,169.916,264.983,169.916z M262.137,172.788c0-0.012-0.036-0.017-0.108-0.017h0.033
		c0.321,0,0.916-0.202,1.784-0.606c0.842-0.631,1.262-1.046,1.262-1.245c0-0.038-0.03-0.058-0.091-0.058h-0.075
		c-1.09,0.271-1.908,0.744-2.457,1.419C262.252,172.553,262.137,172.722,262.137,172.788z"/>
	<path d="M284.755,172.522h0.191c0.232,0.138,0.349,0.307,0.349,0.506v0.059c-0.266,1.029-0.972,2.196-2.116,3.503
		c-0.892,0.874-1.6,1.358-2.125,1.452c-0.797,0.271-1.434,0.407-1.91,0.407c-1.389,0-2.329-0.667-2.822-2.001
		c-0.486-1.499-0.774-2.321-0.863-2.465c-0.104-0.111-0.218-0.172-0.34-0.183h-0.158c-0.492,0-1.004,0.352-1.535,1.054
		c-0.321,0.365-1.162,1.517-2.523,3.453c-0.205,0.205-0.379,0.308-0.523,0.308h-0.066c-0.293,0-0.476-0.194-0.547-0.581
		c0.476-2.07,0.951-3.771,1.428-5.105c0.188-0.249,0.384-0.373,0.589-0.373c0.227,0.094,0.371,0.216,0.432,0.365v0.273
		c-0.183,0.526-0.393,1.309-0.631,2.35v0.224c-0.011-0.083-0.058-0.124-0.142-0.124h-0.041c0.133-0.111,0.567-0.65,1.303-1.619
		c0.692-0.824,1.423-1.236,2.191-1.236h0.133c0.875,0,1.461,0.515,1.76,1.544c0.521,1.715,0.908,2.601,1.162,2.656
		c0.311,0.299,0.73,0.448,1.262,0.448h0.033c1.047,0,2.078-0.521,3.097-1.561c0.979-1.157,1.541-2.064,1.685-2.723
		C284.252,172.732,284.495,172.522,284.755,172.522z"/>
	<path d="M289.67,161.225c0.304,0,0.542,0.271,0.713,0.813h0.018l-0.092-0.19c0,0.769-0.326,2.056-0.979,3.859
		c-0.011,0.017-0.017,0.03-0.017,0.042c0-0.012,0.044-0.014,0.133-0.009c0.72,0,2.576-0.442,5.57-1.328h0.24
		c0.398,0.033,0.598,0.213,0.598,0.54c0,0.354-0.694,0.664-2.084,0.93c-2.273,0.647-3.752,0.971-4.432,0.971
		c-0.398,0-0.687,0.341-0.863,1.021c-0.554,1.289-1.293,2.723-2.217,4.3c-0.531,0.735-0.797,1.206-0.797,1.411v0.116l0.074,0.39
		c0.238,0.72,0.778,1.563,1.619,2.532c0.531,0.403,1.082,0.605,1.652,0.605h0.1c0.891,0,1.748-0.32,2.572-0.963
		c0.709-0.432,1.307-1.06,1.793-1.884c0.421-0.853,0.726-1.381,0.914-1.586c0.121-0.077,0.232-0.116,0.332-0.116h0.049
		c0.35,0.072,0.523,0.263,0.523,0.573c-0.166,0.548-0.667,1.433-1.502,2.656c-0.703,0.735-1.301,1.239-1.793,1.511
		c-0.958,0.525-1.832,0.788-2.623,0.788h-0.531c-1.273,0-2.28-0.578-3.021-1.734c-0.709-0.747-1.207-1.849-1.494-3.304
		c-0.028-0.089-0.042-0.219-0.042-0.391h-0.091l0.091,0.191v-0.847c0-0.089,0.003-0.136,0.009-0.142
		c-0.006-0.005-0.009-0.038-0.009-0.1c0.022-0.486,0.003-0.73-0.058-0.73l0.091,0.191c0-0.664,0.356-1.921,1.071-3.769
		c0.016-0.056,0.024-0.133,0.024-0.232v-0.066c0,0.044-0.047,0.058-0.142,0.041c-0.393,0.022-0.649,0.045-0.771,0.066
		c-0.255-0.021-0.479-0.033-0.672-0.033h-0.855c-0.498-0.116-0.747-0.273-0.747-0.473v-0.066c0-0.133,0.177-0.279,0.531-0.44
		c0.044,0,0.202,0.012,0.474,0.033c1.178-0.066,1.809-0.1,1.893-0.1h0.432c0.281,0,0.586-0.406,0.912-1.22
		c0.41-0.637,0.679-1.109,0.806-1.42c0.155-0.127,0.285-0.318,0.39-0.572c0.869-1.245,1.527-1.868,1.977-1.868H289.67z
		 M285.354,171.567l-0.092-0.19v0.116v0.24c-0.006-0.033-0.039-0.05-0.1-0.05c0.116-0.061,0.418-0.512,0.904-1.353
		c0.443-0.819,0.933-1.84,1.47-3.063v-0.091c0-0.039-0.009-0.059-0.024-0.059h-0.158c-0.554,0.039-0.83,0.139-0.83,0.299
		c-0.841,1.987-1.262,3.224-1.262,3.711C285.262,171.421,285.292,171.567,285.354,171.567z M287.121,166.072v0.009
		c-0.011-0.028,0.02-0.042,0.092-0.042c0.52,0,0.821-0.11,0.904-0.332c0.305-0.752,0.628-1.757,0.971-3.013
		c0.006,0.027,0,0.041-0.016,0.041h0.066C288.043,164.097,287.37,165.209,287.121,166.072z"/>
</g>
<g>
	<path d="M27.158,87.632c-7.131,3.637-13.654,10.601-11.931,19.403c1.683,8.594,10.226,12.713,18.392,10.267
		c7.982-2.391,10.787-12.21,10.688-19.548c-0.11-8.238-10.796-11.021-17.297-10.184c-0.567,0.073-0.574,0.975,0,0.9
		c6.571-0.847,15.492,1.593,16.396,9.283c0.859,7.303-3.097,15.857-10.027,18.68c-7.974,3.248-16.545-2.597-17.395-10.726
		c-0.846-8.087,5.088-13.964,11.626-17.299C28.129,88.146,27.674,87.369,27.158,87.632L27.158,87.632z"/>
	<path d="M16.604,98.382c-0.001,0-0.679-3.031,1.384-4.228c1.594-0.925,3.25-1.709,4.9-2.525c3.78-1.869,7.73-3.368,11.684-4.827
		c6.705-2.471,13.561-4.474,20.226-7.055c6.812-2.639,13.517-2.979,20.682-3.836c3.751-0.449,7.519-1.308,11.289-0.571
		c3.921,0.766,7.266,3.675,10.774,5.393c0.519,0.254,0.975-0.522,0.453-0.776c-3.177-1.557-6.066-3.544-9.344-4.938
		c-3.216-1.367-6.526-0.845-9.883-0.435c-8.338,1.018-16.287,1.303-24.211,4.303c-8.385,3.175-16.989,5.716-25.331,9.011
		c-4.019,1.587-7.908,3.4-11.692,5.479c-2.613,1.436-1.832,2.005-1.831,5.005C15.705,99.382,16.604,99.382,16.604,98.382
		C16.604,98.382,16.604,99.382,16.604,98.382z"/>
	<path d="M61.828,77.274c-7.962,0.758-11.618,10.271-8.876,17c3.875,9.508,13.88,14.175,23.784,11.775
		c7.251-1.756,11.807-12.744,8.99-19.346c-3.784-8.869-16.174-12.896-24.953-9.413c-0.533,0.211-0.301,1.082,0.238,0.867
		c6.551-2.599,16.033-0.476,21.041,4.343c6.348,6.108,3.393,17.118-3.256,21.661c-6.72,4.591-19.088,0.454-22.944-6.262
		c-2.105-3.665-3.796-7.017-2.709-11.376c1.002-4.017,4.415-7.943,8.685-8.35C62.4,78.12,62.406,77.22,61.828,77.274L61.828,77.274z
		"/>
	<path d="M52.268,87.873c1.521,2.118,3.217,4.086,4.46,6.391c1.491,2.765,1.907,5.887,3.589,8.585
		c0.307,0.491,1.085,0.039,0.777-0.455c-1.502-2.408-2.037-5.116-3.182-7.675c-1.217-2.719-3.145-4.9-4.867-7.301
		C52.709,86.951,51.929,87.4,52.268,87.873L52.268,87.873z"/>
	<path d="M60.637,89.765c3.188-1.095,6.156-2.695,9.359-3.744c3.321-1.086,6.783-1.714,10.109-2.809
		c4.731-1.557,8.166,0.355,12.008,2.764c1.537,0.964,2.918,1.504,4.39,2.709c0.972,0.796,1.2,2.928,1.743,4.11
		c1.295,2.818,7.109,2.669,9.426,2.507c3.291-0.23,6.7-1.532,8.456-4.434c0.301-0.498-0.478-0.95-0.777-0.455
		c-2.677,4.426-15.458,6.881-16.96-0.006c-0.785-3.6-5.638-5.145-8.438-6.8c-4.158-2.456-7.271-2.189-11.706-0.729
		c-2.777,0.913-5.667,1.519-8.489,2.275c-3.247,0.869-6.192,2.655-9.359,3.744C59.853,89.085,60.087,89.954,60.637,89.765
		L60.637,89.765z"/>
	<path d="M96.793,89.157c4.187,1.818,12.293,2.835,15.708-1.006c0.384-0.433-0.25-1.071-0.637-0.637
		c-3.079,3.465-10.819,2.515-14.618,0.865C96.72,88.151,96.262,88.927,96.793,89.157L96.793,89.157z"/>
	<path d="M68.02,94.425c6.154-8.344,17.724-6.594,26.635-4.1c0.56,0.157,0.797-0.711,0.238-0.867
		c-9.476-2.653-21.154-4.293-27.65,4.512C66.897,94.438,67.679,94.886,68.02,94.425L68.02,94.425z"/>
	<path d="M75.247,89.212c-0.834,4.042,2.608,8.089,6.851,6.145c1.736-0.796,2.764-2.205,3.309-3.995
		c0.371-1.219,0.229-2.664-1.303-2.668c-0.19,0-0.394,0.137-0.434,0.331c-0.413,1.986-2.949,2.346-3.461,0.257
		c-0.11-0.45-0.102-1.027-0.559-1.275c-0.51-0.277-0.963,0.5-0.453,0.777c0.165,0.09,0.381,1.507,0.521,1.804
		c0.258,0.545,0.883,0.814,1.414,0.992c1.436,0.48,2.814-0.688,3.32-1.911c0.049-0.117,0.184,1.031,0.166,1.128
		c-0.088,0.49-0.284,0.976-0.486,1.428c-0.541,1.207-1.594,2.038-2.822,2.463c-3.465,1.196-5.844-2.094-5.196-5.236
		C76.231,88.884,75.364,88.644,75.247,89.212L75.247,89.212z"/>
	<path d="M27.213,98.918c1.438-3.336,4.045-5.941,7.794-6.419c2.632-0.335,5.947-0.531,8.249,0.964
		c0.488,0.317,0.939-0.463,0.455-0.777c-2.486-1.614-6.726-1.695-9.52-0.981c-3.696,0.944-6.252,3.27-7.756,6.759
		C26.209,98.99,26.983,99.449,27.213,98.918L27.213,98.918z"/>
	<path d="M20.953,85.458c5.571-0.905,10.829-1.1,16.398-0.075c1.672,0.308,3.453,0.786,5.004,1.486
		c2.86,1.289,2.304,7.126,2.168,9.647c-0.479,8.871-3.593,17.048-7.129,25.051c-1.695,3.836-2.108,9.572,1.068,12.875
		c2.132,2.215,7.098,5.406,10.115,3.197c0.463-0.339,0.015-1.121-0.455-0.777c-4.15,3.038-9.826-3.771-10.77-6.615
		c-1.585-4.78,1.451-9.521,3.35-13.678c2.835-6.206,3.971-13.324,4.721-20.053c0.402-3.61,0.698-9.496-3.651-10.89
		c-6.94-2.224-13.919-2.197-21.058-1.036C20.143,84.684,20.386,85.551,20.953,85.458L20.953,85.458z"/>
	<path d="M29.572,96.001c0.246,1.571,0.798,3.559,2.445,4.209c1.299,0.512,2.659,0.035,3.762-0.711
		c1.959-1.325,4.151-4.743,1.846-6.743c-0.437-0.378-1.076,0.256-0.637,0.637c2.871,2.489-5.227,10.78-6.549,2.37
		C30.35,95.19,29.482,95.434,29.572,96.001L29.572,96.001z"/>
	<path d="M32.38,93.007c0.292,1.01,0.37,2.156,0.949,3.059c0.614,0.956,1.68,0.739,2.521,0.234c0.982-0.589,1.671-1.446,2.007-2.545
		c0.312-1.019-0.164-1.944-1.3-1.88c-0.577,0.033-0.58,0.933,0,0.9c0.823-0.047,0.442,0.825,0.212,1.302
		c-0.365,0.753-0.972,1.243-1.702,1.632c-1.41,0.751-1.585-2.128-1.82-2.94C33.086,92.212,32.218,92.448,32.38,93.007L32.38,93.007z
		"/>
	<path d="M20.893,85.144c0.24-0.955,0.041-4.6,0.48-4.71c1.372-0.345,2.776-0.571,4.176-0.78c2.399-0.358,9.979-1.668,10.762,1.748
		c0.129,0.565,0.997,0.325,0.867-0.24c-1.217-5.312-13.209-2.374-16.65-1.437c-0.188,0.051-0.338,0.235-0.331,0.434
		c0.06,1.63,0.235,3.129-0.171,4.747C19.884,85.468,20.752,85.707,20.893,85.144L20.893,85.144z"/>
	<path d="M52.15,80.851c7.943,6.92,22.729-1.088,30.949-3.629c0.553-0.171,0.317-1.039-0.238-0.867
		c-7.795,2.408-22.655,10.322-30.074,3.859C52.352,79.835,51.712,80.469,52.15,80.851L52.15,80.851z"/>
	<path d="M52.4,133.448c-0.111-0.019-2.19-0.299-1.564-0.725c0.637-0.433,1.428-0.64,2.15-0.88c0.941-0.313,1.896-0.54,2.787-0.98
		c1.348-0.665,2.425-1.779,3.996-1.959c0.723-0.083,1.41,0.199,2.033,0.518c1.137,0.581,0.564,1.623-0.469,1.78
		c-0.572,0.087-0.328,0.954,0.24,0.867c3.637-0.553,1.75-3.311-0.753-3.981c-1.845-0.495-3.552,0.803-5.012,1.714
		c-1.97,1.228-4.548,1.163-6.28,2.826c-0.184,0.176-0.162,0.458,0,0.637c0.774,0.854,1.534,0.872,2.633,1.051
		C52.729,134.408,52.973,133.541,52.4,133.448L52.4,133.448z"/>
	<path d="M61.307,122.665c4.032-1.9,7.126,1.152,8.049,4.968c0.67,2.766-0.133,6.259-3.664,5.067
		c-0.551-0.187-0.785,0.683-0.238,0.867c4.126,1.394,5.37-2.321,4.851-5.764c-0.711-4.712-4.89-8.065-9.45-5.916
		C60.328,122.135,60.785,122.911,61.307,122.665L61.307,122.665z"/>
	<path d="M71.336,125.659c5.095,2.971,8.577,8.744,11.949,13.47c2.518,3.527,3.75,7.46,7.33,10.117
		c0.467,0.347,0.915-0.436,0.455-0.777c-2.487-1.846-3.849-4.293-5.268-6.952c-1.565-2.932-3.734-5.38-5.685-8.043
		c-2.461-3.359-4.661-6.454-8.329-8.592C71.287,124.589,70.834,125.367,71.336,125.659L71.336,125.659z"/>
	<path d="M20.384,85.774c0.062,4.9,0.049,10.153,1.478,14.876c2.011,6.648,0.876,13.316,0.76,20.159
		c-0.092,5.451,1.51,10.568,3.253,15.669c1.71,5.004,4.122,11.49,3.682,16.871c-0.047,0.579,0.854,0.574,0.9,0
		c0.315-3.859-1.102-8.473-2.102-12.146c-1.885-6.925-4.687-13.062-4.833-20.394c-0.105-5.258,1.542-11.267,0.366-16.436
		c-1.429-6.288-2.522-12.086-2.604-18.6C21.276,85.194,20.377,85.193,20.384,85.774L20.384,85.774z"/>
	<path d="M43.791,137.38c-4.562-1.048-10.646,4.352-12.302,8.255c-0.224,0.528,0.552,0.987,0.777,0.455
		c1.487-3.508,7.173-8.787,11.284-7.843C44.116,138.377,44.356,137.51,43.791,137.38L43.791,137.38z"/>
	<path d="M36.801,143.858c-2.83,3.22-5.588,5.927-7.484,9.825c-1.746,3.591-2.27,7.729-2.756,11.646
		c-0.572,4.603-0.989,9.352-0.357,13.972c0.547,4.003,2.138,6.312,4.163,9.655c0.3,0.495,1.079,0.043,0.777-0.455
		c-1.628-2.686-3.125-4.696-3.862-7.897c-0.994-4.32-0.458-9.17-0.021-13.527c0.394-3.923,1.025-7.727,2.25-11.473
		c1.487-4.55,4.874-7.636,7.927-11.109C37.818,144.061,37.185,143.422,36.801,143.858L36.801,143.858z"/>
	<path d="M29.947,171.44c0.724,3.443,0.146,6.887,0.357,10.362c0.167,2.747,1.406,5.481,2.449,7.981
		c0.754,1.81,1.409,3.719,2.632,5.285c1.048,1.34,4.154,3.391,4.481,5.01c0.114,0.569,0.981,0.328,0.867-0.238
		c-0.189-0.942-1.337-1.809-1.953-2.44c-2.322-2.387-3.93-4.696-5.16-7.854c-1.402-3.604-2.53-6.781-2.49-10.738
		c0.026-2.603,0.223-5.045-0.316-7.607C30.695,170.633,29.828,170.874,29.947,171.44L29.947,171.44z"/>
	<path d="M33.129,177.616c0.639,4.066,3.441,6.958,5.474,10.404c0.218,0.368,0.871,0.233,0.839-0.228
		c-0.366-5.215,0.617-10.333,0.749-15.537c0.146-5.758-1.044-11.103,0.919-16.728c0.192-0.549-0.678-0.783-0.867-0.238
		c-2.324,6.656-0.653,13.558-1.111,20.437c-0.23,3.459-0.731,6.85-0.712,10.326c0.005,0.827-1.132-1.707-1.448-2.156
		c-1.426-2.025-2.583-4.031-2.975-6.519C33.906,176.806,33.039,177.049,33.129,177.616L33.129,177.616z"/>
	<path d="M40.527,172.832c2.463-1.397,4.148-5.092,4.7-7.757c0.118-0.565-0.75-0.807-0.867-0.238
		c-0.499,2.41-2.051,5.949-4.286,7.218C39.569,172.341,40.022,173.119,40.527,172.832L40.527,172.832z"/>
	<path d="M45.154,149.939c-1.4,3.314-4.002,15.328,1.699,16.027c0.575,0.07,0.568-0.83,0-0.9
		c-4.461-0.547-2.031-12.049-0.922-14.672C46.154,149.866,45.38,149.407,45.154,149.939L45.154,149.939z"/>
	<path d="M48.873,157.108c0.977,0.492,1.46,1.574,2.326,2.216c1.16,0.86,2.79,0.85,4.145,1.198c0.562,0.146,0.802-0.723,0.24-0.867
		c-1.35-0.348-3.025-0.317-4.108-1.275c-0.755-0.668-1.223-1.583-2.149-2.049C48.81,156.071,48.354,156.848,48.873,157.108
		L48.873,157.108z"/>
	<path d="M51.286,150.101c1.394,3.62,1.906,7.651,4.248,10.84c1.751,2.385,5.129,3.306,7.86,3.887
		c0.565,0.121,0.807-0.747,0.238-0.867c-3.307-0.704-6.383-1.795-8.223-4.826c-1.678-2.766-2.104-6.275-3.257-9.273
		C51.947,149.325,51.077,149.558,51.286,150.101L51.286,150.101z"/>
	<path d="M61.885,157.225c2.091,1.709,4.193,3.39,6.643,4.563c0.52,0.249,0.977-0.526,0.453-0.777
		c-2.38-1.141-4.426-2.76-6.459-4.423C62.076,156.224,61.436,156.856,61.885,157.225L61.885,157.225z"/>
	<path d="M65.628,155.728c1.391,1.575,1.564,3.652,2.851,5.253c1.389,1.728,3.077,3.168,4.801,4.555
		c3.791,3.05,8.303,4.905,11.816,8.35c0.415,0.406,1.052-0.229,0.637-0.637c-3.229-3.164-7.224-5.184-10.934-7.705
		c-2.327-1.583-4.699-3.67-6.217-6.057c-0.967-1.52-1.106-3.023-2.317-4.396C65.88,154.655,65.246,155.294,65.628,155.728
		L65.628,155.728z"/>
	<path d="M75.924,156.289c4.319,4.004,8.775,8.57,12.222,13.353c2.688,3.73,2.562,8.243,4.742,12.015
		c0.29,0.502,1.068,0.049,0.777-0.455c-1.022-1.766-1.224-3.954-1.714-5.904c-0.548-2.184-1.84-4.232-3.028-6.109
		c-3.128-4.939-8.099-9.582-12.362-13.535C76.136,155.259,75.498,155.894,75.924,156.289L75.924,156.289z"/>
	<path d="M68.754,140.322c3.975,0.212,7.056,4.251,9.947,6.616c2.585,2.112,5.248,3.99,8.465,4.973
		c0.557,0.171,0.793-0.698,0.24-0.867c-4.379-1.339-8.018-4.485-11.344-7.531c-2.146-1.966-4.279-3.929-7.309-4.091
		C68.174,139.392,68.177,140.291,68.754,140.322L68.754,140.322z"/>
	<path d="M81.165,144.495c2.37,2.305,3.882,5.115,6.644,6.997c4.588,3.126,9.493,4.978,12.727,9.78
		c2.071,3.075,3.467,6.951,4.097,10.604c0.235,1.363,1.771,9.797-0.431,10.242c-0.569,0.114-0.328,0.981,0.238,0.867
		c4.03-0.812,0.885-12.521,0.093-15.099c-1.312-4.27-3.563-8.832-7.232-11.544c-2.466-1.822-5.126-3.285-7.765-4.835
		c-3.322-1.949-5.062-5.051-7.733-7.649C81.386,143.454,80.748,144.09,81.165,144.495L81.165,144.495z"/>
	<path d="M93.049,174.704c1.674,1.052,2.92,2.504,4.787,3.227c0.405,0.157,0.66-0.345,0.509-0.661
		c-0.403-0.839-0.798-1.654-1.311-2.434c-0.259,0.151-0.519,0.304-0.777,0.455c0.884,1.307,2.041,2.221,3.306,3.139
		c2.766,2.007,4.531,5.386,2.872,8.762c-0.255,0.52,0.521,0.976,0.777,0.455c0.978-1.99,1.018-4.723-0.069-6.709
		c-1.453-2.655-4.445-3.642-6.108-6.102c-0.322-0.477-1.099-0.033-0.777,0.455c0.513,0.779,0.907,1.594,1.311,2.434
		c0.169-0.221,0.339-0.441,0.509-0.661c-1.76-0.682-2.999-2.146-4.572-3.137C93.011,173.617,92.56,174.396,93.049,174.704
		L93.049,174.704z"/>
	<path d="M42.488,172.886c-0.75,4.886-2.598,9.359-3.012,14.346c-0.307,3.693-0.887,9.9,0.811,13.331
		c2.305,4.658,6.922,8.346,10.104,12.425c3.074,3.941,6.92,3.642,10.648,6.268c0.477,0.335,0.926-0.446,0.455-0.777
		c-3.088-2.174-6.671-2.211-9.561-5.08c-3.115-3.094-5.567-6.868-8.622-10.038c-3.462-3.594-3.151-9.791-3.04-14.531
		c0.131-5.545,2.263-10.349,3.084-15.704C43.443,172.557,42.576,172.313,42.488,172.886L42.488,172.886z"/>
	<path d="M60.63,214.936c0.052,1.131,0.366,2.195,0.577,3.302c0.096,0.506,0.892,0.38,0.884-0.119
		c-0.021-1.251-0.166-2.493-0.187-3.744c-0.279,0.076-0.56,0.151-0.839,0.228c0.247,0.513,0.587,0.839,1.006,1.214
		c0.219,0.195,0.549,0.166,0.707-0.091c0.768-1.248,1.147-2.641,1.543-4.04c-0.274,0.036-0.548,0.072-0.822,0.108
		c0.94,1.983,2.306,3.767,2.95,5.882c0.168,0.554,1.037,0.318,0.867-0.238c-0.668-2.196-2.064-4.041-3.04-6.099
		c-0.173-0.365-0.724-0.242-0.822,0.108c-0.375,1.323-0.726,2.642-1.453,3.823c0.235-0.03,0.472-0.061,0.707-0.091
		c-0.352-0.313-0.657-0.6-0.865-1.032c-0.198-0.412-0.846-0.202-0.839,0.228c0.021,1.251,0.166,2.493,0.187,3.744
		c0.295-0.04,0.59-0.08,0.884-0.119c-0.195-1.024-0.497-2.017-0.544-3.063C61.504,214.357,60.604,214.355,60.63,214.936
		L60.63,214.936z"/>
	<path d="M67.002,211.626c3.01-1.109,4.979-3.075,6.82-5.636c0.34-0.473-0.441-0.921-0.777-0.455
		c-1.695,2.358-3.508,4.2-6.281,5.224C66.224,210.957,66.457,211.827,67.002,211.626L67.002,211.626z"/>
	<path d="M69.197,212.374c6.503,1.172,13.412-4.17,17.472-8.727c0.385-0.432-0.25-1.07-0.637-0.637
		c-3.797,4.263-10.487,9.597-16.597,8.496C68.869,211.404,68.626,212.271,69.197,212.374L69.197,212.374z"/>
	<path d="M81.068,211.954c3.331,1.849,9.592-5.87,11.16-7.979c2.922-3.929,4.441-8.667,6.422-13.079
		c0.926-2.062,2.661-3.987,2.938-6.285c0.069-0.575-0.831-0.568-0.9,0c-0.237,1.966-1.911,4.098-2.815,5.831
		c-1.482,2.841-2.444,5.954-3.906,8.822c-1.465,2.874-3.251,5.449-5.509,7.761c-0.693,0.71-5.444,4.979-6.935,4.152
		C81.016,210.896,80.562,211.673,81.068,211.954L81.068,211.954z"/>
	<path d="M117.611,178.51c5.752,0.157,9.065,5.271,12.826,8.877c1.802,1.728,4.175,3.476,6.682,2.292
		c0.524-0.248,0.067-1.023-0.455-0.777c-3.682,1.739-7.93-4.689-10.127-6.844c-2.506-2.457-5.341-4.35-8.926-4.448
		C117.03,177.594,117.032,178.494,117.611,178.51L117.611,178.51z"/>
	<path d="M133.653,183.806c1.933-1.566,3.711-3.314,5.712-4.797c0.461-0.342,0.014-1.123-0.453-0.777
		c-2.064,1.528-3.902,3.322-5.896,4.938C132.565,183.535,133.207,184.167,133.653,183.806L133.653,183.806z"/>
	<path d="M139.457,182.308c2.516-2.575,5.692-4.013,8.111-6.718c1.785-1.997,3.121-4.386,4.484-6.676
		c1.943-3.267,4.639-8.081,3.056-11.94c-0.217-0.529-1.088-0.297-0.867,0.24c1.679,4.095-1.759,9.358-3.886,12.755
		c-1.871,2.989-3.737,5.903-6.652,8.003c-1.709,1.229-3.404,2.187-4.883,3.699C138.415,182.086,139.051,182.724,139.457,182.308
		L139.457,182.308z"/>
	<path d="M160.534,121.396c-0.801,1.547-2.083,1.717-3.847,0.511c0.472-0.989,1.362-2.005,1.959-2.892
		c0.828-1.229,1.596-3.027,1.707-4.493c0.173-2.272-0.147-3.874-1.007-5.986c-0.903-2.222,1.381-4.402,2.386-6.155
		c1.014-1.768,1.706-3.709,2.361-5.629c1.201-3.519,4.15-5.226,7.141-6.922c3.261-1.85,8.212-2.395,8.758,2.483
		c0.24,2.14,0.15,4.633-0.667,6.632c-0.22,0.538,0.651,0.77,0.867,0.24c1.714-4.19,1.784-12.89-4.813-11.628
		c-3.818,0.73-7.184,2.641-10.009,5.298c-1.46,1.373-2.03,3.322-2.654,5.151c-1.116,3.271-3,6.145-5.06,8.881
		c-0.095,0.126-0.072,0.326,0,0.455c2.732,4.851,2.061,8.981-1.256,13.309c-0.593,0.774-1.531,2.446-1.237,3.518
		c0.859,3.123,5.307-1.323,6.008-2.136C161.548,121.595,160.914,120.955,160.534,121.396L160.534,121.396z"/>
	<path d="M173.709,99.132c-0.916,3.343-1.459,6.035-1.022,9.479c0.738,5.816-0.975,9.949-4.228,14.69
		c-1.986,2.896-8.154,7.834-6.123,12.119c0.092,0.193,0.32,0.237,0.508,0.206c1.735-0.286,2.47-2.979,2.935-4.432
		c0.178-0.555-0.691-0.79-0.867-0.24c-0.312,0.973-0.736,1.882-1.21,2.783c-0.575-0.408-0.693-0.882-0.356-1.42
		c0.42-1.672,1.22-3.132,2.399-4.382c1.854-2.278,3.663-4.325,5.23-6.839c4.437-7.117,1.506-14.078,3.602-21.727
		C174.73,98.81,173.861,98.572,173.709,99.132L173.709,99.132z"/>
	<path d="M152.789,128.307c0.717,1.466,1.279,2.974,2.246,4.305c0.338,0.464,1.119,0.016,0.777-0.455
		c-0.968-1.33-1.529-2.838-2.246-4.305C153.312,127.331,152.535,127.787,152.789,128.307L152.789,128.307z"/>
	<path d="M151.604,131.823c-0.132,5.128-1.686,20.248,8.041,13.515c2.369-1.64,3.714-4.843,5.227-7.166
		c2.584-3.968,5.368-7.799,7.596-11.983c3.521-6.616,7.202-15.424,6.992-23.006c-0.017-0.579-0.916-0.581-0.9,0
		c0.156,5.631-2.213,11.205-4.153,16.402c-2.477,6.635-6.43,12.274-10.311,18.133c-1.829,2.76-3.179,5.648-5.997,7.6
		c-4.128,2.857-5.717-1.55-5.979-4.491c-0.269-3.001,0.309-6.008,0.386-9.003C152.52,131.242,151.619,131.244,151.604,131.823
		L151.604,131.823z"/>
	<path d="M156.961,92.153c4.585-3.386,15.604-13.456,20.795-6.811c0.357,0.457,0.989-0.185,0.637-0.637
		c-5.663-7.248-17.061,3.107-21.885,6.67C156.046,91.717,156.494,92.498,156.961,92.153L156.961,92.153z"/>
	<path d="M136.637,58.503c1.629-0.452,3.28,0.47,4.43,1.57c0.419,0.401,1.057-0.234,0.637-0.637
		c-1.386-1.327-3.359-2.342-5.305-1.801C135.84,57.791,136.077,58.659,136.637,58.503L136.637,58.503z"/>
	<path d="M137.697,64.004c4.517,4.299,7.574,9.745,11.418,14.601c0.36,0.455,0.992-0.187,0.637-0.637
		c-3.848-4.86-6.896-10.297-11.418-14.601C137.914,62.968,137.276,63.603,137.697,64.004L137.697,64.004z"/>
	<path d="M141.253,78.417c2.281,2.43,4.976,4.764,8.116,6.009c3.766,1.492,9.064,0.354,11.914,3.351
		c0.4,0.421,1.036-0.217,0.637-0.637c-1.937-2.035-3.714-2.524-6.517-2.425c-5.373,0.192-9.994-3.185-13.514-6.935
		C141.491,77.356,140.856,77.994,141.253,78.417L141.253,78.417z"/>
	<path d="M20.705,80.464c0.311-1.759,0.086-3.371-0.209-5.12c-0.664-3.939-0.677-8.048-0.71-12.032
		c-0.068-8.129,0.685-14.744,4.057-22.235c3.054-6.785,6.499-11.932,12.074-16.944c6.171-5.549,13.46-7.924,20.846-11.314
		c2.944-1.352,5.675-3.187,8.545-4.69c3.542-1.854,7.233-2.571,11.09-3.401c7.853-1.689,15.62-3.294,23.661-3.748
		c7.594-0.429,15.19,0.39,22.514,2.427c3.152,0.877,6.135,2.25,9.271,3.183c3.895,1.158,7.742,2.054,11.186,4.324
		c0.485,0.32,0.936-0.459,0.453-0.777c-5.532-3.648-12.771-4.913-18.983-7.07c-7.245-2.517-15.056-3.171-22.673-3.051
		C93.762,0.14,85.875,1.741,78.025,3.451C70.4,5.112,64.637,7.405,57.857,11.258c-6.605,3.753-13.942,5.204-19.971,10.073
		c-5.727,4.625-10.434,9.564-13.555,16.275c-2.897,6.229-5.193,12.141-5.455,19.06c-0.153,4.062-0.021,8.179,0.149,12.237
		c0.148,3.534,1.421,7.859,0.812,11.322C19.737,80.793,20.604,81.035,20.705,80.464L20.705,80.464z"/>
	<path d="M140.703,7.213c2.328,0.817,4.355,2.806,6.34,4.219c3.542,2.522,6.143,5.058,8.592,8.671
		c3.016,4.45,5.924,8.216,9.648,12.1c5.15,5.37,6.518,14.933,7.236,21.992c0.341,3.343,0.173,6.698,0.237,10.05
		c0.044,2.28,0.901,4.29,1.327,6.487c0.109,0.569,0.977,0.327,0.867-0.24c-2.269-11.732,0.288-27.775-8.062-37.767
		c-2.27-2.715-4.908-5.009-7.048-7.851c-1.911-2.538-3.313-5.44-5.327-7.907c-3.222-3.949-8.71-8.916-13.572-10.621
		C140.393,6.152,140.158,7.022,140.703,7.213L140.703,7.213z"/>
	<path d="M172.443,71.775c0.787,1.479,0.558,3.907,0.594,5.528c0.031,1.335,0.416,4.093-0.406,5.247
		c-0.337,0.475,0.443,0.923,0.777,0.455c0.957-1.347,0.55-4.183,0.529-5.702c-0.024-1.792,0.159-4.336-0.717-5.983
		C172.948,70.809,172.171,71.263,172.443,71.775L172.443,71.775z"/>
	<path d="M42.176,78.655c0.083,0.25,0.166,0.499,0.25,0.748c0.156,0.47,0.893,0.406,0.884-0.119
		c-0.054-2.967-0.978-6.319,0.688-9.007c0.307-0.495-0.473-0.947-0.777-0.455c-1.774,2.865-0.867,6.298-0.811,9.462
		c0.295-0.04,0.59-0.08,0.884-0.119c-0.083-0.25-0.166-0.499-0.25-0.748C42.86,77.869,41.991,78.104,42.176,78.655L42.176,78.655z"
		/>
	<path d="M48.784,77.907c0.454-2.541,0.79-5.08,2.63-7.04c0.396-0.423-0.238-1.061-0.637-0.637c-1.961,2.089-2.375,4.714-2.86,7.437
		C47.815,78.235,48.683,78.478,48.784,77.907L48.784,77.907z"/>
	<path d="M89.555,68.192c2.417,1.076,4.84,2.182,6.988,3.744c0.471,0.342,0.919-0.439,0.455-0.777
		c-2.149-1.562-4.572-2.668-6.99-3.744C89.483,67.182,89.025,67.957,89.555,68.192L89.555,68.192z"/>
	<path d="M90.66,64.743c5.42,1.973,11.136,5.309,13.958,10.526c0.276,0.51,1.054,0.056,0.777-0.455
		c-2.938-5.431-8.858-8.887-14.495-10.938C90.354,63.677,90.12,64.547,90.66,64.743L90.66,64.743z"/>
	<path d="M69.631,212.444c-2.851,7.155-3.238,14.717-3.261,22.334c-0.001,0.58,0.898,0.58,0.9,0
		c0.021-7.529,0.411-15.023,3.228-22.094C70.713,212.145,69.843,211.912,69.631,212.444L69.631,212.444z"/>
	<path d="M78.324,213.952c8.559,4.824,12.46,14.449,18.058,22.052c0.188,0.256,0.603,0.323,0.777,0
		c1.198-2.226,1.735-4.622,2.489-7.023c1.102-3.51,3.8-6.846,5.945-9.777c4.741-6.478,8.743-13.484,13.708-19.798
		c0.354-0.451-0.278-1.093-0.637-0.637c-3.965,5.043-7.263,10.535-10.812,15.868c-3.389,5.089-7.653,9.581-9.521,15.529
		c-0.044,0.142-1.511,4.925-1.952,4.326c-0.808-1.097-1.541-2.25-2.283-3.391c-1.555-2.387-3.037-4.819-4.615-7.191
		c-2.85-4.283-6.18-8.186-10.705-10.735C78.271,212.89,77.818,213.667,78.324,213.952L78.324,213.952z"/>
	<path d="M118.854,199.521c16.354-2.546,34.306-10.445,45.125-23.327c0.37-0.441-0.263-1.081-0.637-0.637
		c-10.711,12.753-28.537,20.575-44.727,23.097C118.043,198.742,118.286,199.609,118.854,199.521L118.854,199.521z"/>
	<path d="M161.479,142.55c1.696,11.138-4.48,22.795,1.292,33.304c0.279,0.509,1.057,0.055,0.777-0.455
		c-5.682-10.343,0.473-22.098-1.202-33.087C162.26,141.739,161.393,141.982,161.479,142.55L161.479,142.55z"/>
	<path d="M161.595,161.218c1.725,1.455,3.393,2.935,4.605,4.86c1.658,2.633,0.524,5.332-1.182,7.572
		c-0.352,0.463,0.431,0.91,0.777,0.455c4.153-5.456,0.985-9.686-3.564-13.524C161.791,160.21,161.15,160.843,161.595,161.218
		L161.595,161.218z"/>
	<path d="M165.588,165.212c3.872,3.174,4.028,9.567,4.729,14.167c1.124,7.376,3.124,13.285,0.444,20.633
		c-1.261,3.457-2.991,6.731-5.328,9.579c-2.419,2.949-6.706,4.376-10.074,5.935c-4.153,1.923-9.237,3.193-12.054,7.045
		c-0.343,0.47,0.438,0.918,0.777,0.455c2.197-3.007,6.008-4.236,9.286-5.621c3.635-1.535,7.481-3.166,10.763-5.366
		c4.479-3.001,6.71-9.354,8.352-14.215c2.106-6.242-0.233-12.487-1.298-18.684c-0.827-4.817-0.849-11.194-4.96-14.564
		C165.779,164.211,165.139,164.844,165.588,165.212L165.588,165.212z"/>
	<path d="M102.511,236.726c3.251,0.322,6.663,0.675,9.891,0.023c1.727-0.348,1.798-2.822,2.024-4.098
		c1.949-10.969,1.453-22.387,4.242-33.195c0.146-0.562-0.723-0.801-0.867-0.238c-1.972,7.638-2.087,15.49-2.814,23.305
		c-0.377,4.055-1.064,7.986-1.807,11.979c-0.531,2.85-8.826,1.508-10.669,1.324C101.934,235.769,101.938,236.669,102.511,236.726
		L102.511,236.726z"/>
	<path d="M66.672,236.382c0,0,7.969,0,12.129,0c4.526,0,8.819-1.617,13.357-0.594c0.564,0.129,0.805-0.778,0.238-0.905
		c-3.607-0.814-6.951-0.217-10.568,0.256c-5.01,0.655-10.156,0.188-15.156,0.188C65.672,235.326,65.672,236.382,66.672,236.382
		C66.672,236.382,65.672,236.382,66.672,236.382z"/>
	<path d="M61.828,15.84c2.516,0.05,4.988,0.705,7.369,1.481c0.553,0.181,0.788-0.688,0.238-0.867
		c-2.456-0.802-5.011-1.463-7.607-1.515C61.247,14.928,61.248,15.828,61.828,15.84L61.828,15.84z"/>
	<path d="M69.945,8.336c3.041,1.204,4.982,4.923,5.676,7.923c0.289-0.08,0.578-0.16,0.867-0.24c-0.545-2.018-0.07-3.847,0.017-5.869
		c-0.15,0.15-0.3,0.3-0.45,0.45c1.508,0.088,2.421,1.113,3.426,2.114c0.412,0.409,1.049-0.227,0.637-0.637
		c-1.223-1.218-2.274-2.273-4.062-2.378c-0.253-0.015-0.439,0.217-0.45,0.45c-0.09,2.106-0.547,4.022,0.017,6.109
		c0.151,0.562,0.998,0.324,0.867-0.24c-0.773-3.354-2.945-7.22-6.305-8.55C69.644,7.255,69.412,8.125,69.945,8.336L69.945,8.336z"/>
	<path d="M173.395,200.785c7.824-0.472,12.672,5.954,18.863,9.66c6.232,3.73,12.716,7.03,19.096,10.495
		c0.511,0.277,0.965-0.5,0.455-0.777c-7.491-4.067-15.051-7.993-22.322-12.449c-5.679-3.48-8.763-8.271-16.092-7.829
		C172.818,199.92,172.814,200.82,173.395,200.785L173.395,200.785z"/>
	<path d="M66.32,238.223c5.979,0.402,9.625,6.337,15.287,7.938c3.688,1.042-0.224,6.673-1.365,9.078
		c-1.818,3.829-4.12,7.43-6.348,11.027c-3.979,6.425-7.632,12.497-9.762,19.797c-2.01,6.889-2.695,14.195-2.755,21.345
		c-0.005,0.58,0.896,0.58,0.9,0c0.093-11.175,1.888-22.551,7.331-32.441c5.307-9.641,11.878-18.161,15.115-28.838
		c0.089-0.293-0.15-0.554-0.434-0.569c-7.252-0.401-10.919-7.761-17.971-8.236C65.74,237.283,65.744,238.184,66.32,238.223
		L66.32,238.223z"/>
	<path d="M66.619,237.772c-0.856,14.362-2.949,28.665-6.722,42.561c-0.152,0.561,0.716,0.798,0.867,0.238
		c3.794-13.97,5.894-28.359,6.755-42.799C67.554,237.192,66.654,237.196,66.619,237.772L66.619,237.772z"/>
	<path d="M120.754,243.374c-5.388,2.489-10.389,6.186-13.793,11.094c-5.092,7.34-14.158,6.898-22.148,5.552
		c-2.223-0.374-0.667-7.421-0.363-8.576c0.695-2.638,2.563-4.566,4.896-5.853c6.04-3.332,14.636-1.999,21.219-2.423
		c8.116-0.522,16.09-1.341,24.237-1.083c5.086,0.16,9.963,0.208,14.606-2.121c5.309-2.662,9.002-8.584,12.162-13.371
		c4.445-6.731,7.829-14.151,10.761-21.646c0.191-0.487-0.569-0.771-0.822-0.347c-7.414,12.465-13.777,25.543-21.926,37.565
		c-8.563,12.633-20.525,22.673-30.418,34.225c-0.375,0.438,0.259,1.078,0.637,0.637c6.805-7.945,14.272-15.274,21.358-22.962
		c6.617-7.18,11.899-15.194,16.806-23.617c2.418-4.153,4.71-8.382,7.029-12.592c1.176-2.135,2.363-4.264,3.561-6.388
		c0.606-1.071,1.219-2.14,1.837-3.205c1.003-1.738,0.876-3.022-0.161-0.46c-4.109,10.152-9.599,20.716-17.408,28.522
		c-6.034,6.032-14.381,4.902-22.135,4.752c-10.107-0.196-20.228,1.295-30.338,1.527c-4.408,0.101-10.148,0.464-13.6,3.617
		c-3.973,3.631-4.104,8.982-3.657,14.014c0.017,0.188,0.124,0.395,0.331,0.434c6.33,1.202,13.019,1.785,19.088-0.782
		c3.326-1.406,4.618-4.359,6.76-7.009c3.082-3.814,7.526-6.689,11.936-8.727C121.734,243.908,121.276,243.133,120.754,243.374
		L120.754,243.374z"/>
	<path d="M46.854,212.613c-16.507-0.359-30.337,10.118-46.424,11.98c-0.569,0.066-0.576,0.967,0,0.9
		c16.086-1.862,29.934-12.34,46.424-11.98C47.435,213.526,47.434,212.626,46.854,212.613L46.854,212.613z"/>
	<path d="M54.467,162.062c-5.156,2.383-9.482,5.766-10.875,11.5c-0.096,0.392,0.31,0.695,0.66,0.509
		c3.641-1.933,6.916-4.445,10.67-6.177c-0.205-0.205-0.411-0.41-0.616-0.616c-0.581,1.067-0.541,2.299-1.123,3.369
		c-0.207,0.382,0.22,0.867,0.616,0.616c0.697-0.443,4.972-3.572,5.605-2.639c1.469,2.164,2.162,4.899,2.719,7.424
		c0.125,0.566,0.992,0.326,0.867-0.24c-0.674-3.056-1.649-5.929-3.414-8.53c-0.134-0.196-0.398-0.299-0.615-0.161
		c-1.845,1.171-3.773,2.198-5.617,3.369c0.205,0.205,0.411,0.41,0.616,0.616c0.58-1.067,0.54-2.3,1.123-3.369
		c0.228-0.42-0.216-0.801-0.616-0.616c-3.753,1.732-7.028,4.244-10.668,6.177c0.22,0.17,0.44,0.339,0.66,0.509
		c1.34-5.516,5.533-8.685,10.463-10.963C55.447,162.596,54.99,161.82,54.467,162.062L54.467,162.062z"/>
</g>
</svg>
