<?xml version="1.0" encoding="utf-8"?>
<!-- Generator: Adobe Illustrator 16.0.0, SVG Export Plug-In . SVG Version: 6.00 Build 0)  -->
<!DOCTYPE svg PUBLIC "-//W3C//DTD SVG 1.1//EN" "http://www.w3.org/Graphics/SVG/1.1/DTD/svg11.dtd">
<svg version="1.1" xmlns="http://www.w3.org/2000/svg" xmlns:xlink="http://www.w3.org/1999/xlink" x="0px" y="0px"
	 width="293.997px" height="18.937px" viewBox="0 0 293.997 18.937" enable-background="new 0 0 293.997 18.937"
	 xml:space="preserve">
<g id="HP">
	<g opacity="0.7">
		<path fill="#FFFFFF" d="M26.074,13.034l2.749-7.158h1.021l2.93,7.158h-1.079l-0.835-2.168h-2.993l-0.786,2.168H26.074z
			 M28.14,10.094h2.427l-0.747-1.982c-0.228-0.602-0.397-1.097-0.508-1.484c-0.091,0.459-0.22,0.915-0.386,1.367L28.14,10.094z"/>
		<path fill="#FFFFFF" d="M34.219,13.034h-0.815V5.875h0.879v2.554c0.371-0.465,0.845-0.698,1.421-0.698
			c0.318,0,0.621,0.064,0.906,0.193c0.284,0.129,0.519,0.31,0.703,0.542c0.184,0.232,0.328,0.514,0.432,0.842
			s0.156,0.68,0.156,1.055c0,0.889-0.22,1.576-0.659,2.061s-0.967,0.728-1.582,0.728c-0.612,0-1.093-0.255-1.44-0.767V13.034z
			 M34.209,10.402c0,0.622,0.084,1.071,0.254,1.348c0.277,0.453,0.65,0.679,1.123,0.679c0.385,0,0.717-0.167,0.996-0.5
			s0.42-0.831,0.42-1.492c0-0.677-0.135-1.177-0.402-1.499c-0.27-0.322-0.594-0.483-0.975-0.483c-0.385,0-0.717,0.167-0.996,0.5
			S34.209,9.771,34.209,10.402z"/>
		<path fill="#FFFFFF" d="M38.633,10.441c0-0.96,0.267-1.671,0.801-2.134c0.445-0.384,0.989-0.576,1.631-0.576
			c0.713,0,1.295,0.234,1.748,0.701c0.452,0.467,0.678,1.112,0.678,1.936c0,0.667-0.1,1.192-0.3,1.575s-0.491,0.68-0.874,0.891
			s-0.8,0.317-1.252,0.317c-0.727,0-1.312-0.233-1.761-0.698S38.633,11.316,38.633,10.441z M39.535,10.441
			c0,0.664,0.146,1.162,0.436,1.492c0.289,0.33,0.654,0.496,1.094,0.496c0.436,0,0.799-0.166,1.088-0.498
			c0.29-0.332,0.436-0.838,0.436-1.519c0-0.641-0.146-1.127-0.438-1.458s-0.653-0.496-1.086-0.496c-0.439,0-0.805,0.165-1.094,0.493
			C39.681,9.28,39.535,9.777,39.535,10.441z"/>
		<path fill="#FFFFFF" d="M47.91,13.034v-0.762c-0.404,0.586-0.953,0.879-1.646,0.879c-0.306,0-0.592-0.059-0.856-0.176
			s-0.462-0.264-0.591-0.442s-0.219-0.395-0.271-0.652c-0.035-0.172-0.053-0.446-0.053-0.82V7.848h0.879v2.876
			c0,0.459,0.018,0.768,0.053,0.928c0.056,0.231,0.173,0.413,0.352,0.544c0.18,0.132,0.4,0.198,0.664,0.198s0.512-0.068,0.742-0.203
			c0.231-0.135,0.395-0.319,0.491-0.552s0.144-0.57,0.144-1.013V7.848h0.879v5.186H47.91z"/>
		<path fill="#FFFFFF" d="M51.981,12.248l0.127,0.776c-0.247,0.052-0.469,0.078-0.664,0.078c-0.319,0-0.566-0.05-0.742-0.151
			s-0.3-0.234-0.371-0.398s-0.107-0.51-0.107-1.038V8.532h-0.645V7.848h0.645V6.564l0.874-0.527v1.812h0.884v0.684h-0.884v3.032
			c0,0.25,0.016,0.412,0.047,0.483c0.03,0.072,0.081,0.128,0.15,0.171c0.07,0.042,0.17,0.063,0.301,0.063
			C51.693,12.282,51.822,12.271,51.981,12.248z"/>
	</g>
	<g opacity="0.7">
		<path fill="#FFFFFF" d="M92.371,10.734l0.895-0.078c0.042,0.358,0.141,0.652,0.295,0.881s0.395,0.415,0.721,0.557
			c0.325,0.142,0.691,0.212,1.098,0.212c0.361,0,0.681-0.054,0.957-0.161c0.277-0.107,0.482-0.254,0.618-0.442
			s0.202-0.392,0.202-0.613c0-0.225-0.064-0.42-0.195-0.588c-0.13-0.168-0.345-0.309-0.645-0.422
			c-0.191-0.075-0.616-0.191-1.273-0.349c-0.658-0.158-1.119-0.307-1.383-0.447c-0.342-0.179-0.596-0.401-0.764-0.667
			s-0.252-0.562-0.252-0.891c0-0.361,0.104-0.699,0.309-1.013s0.504-0.553,0.898-0.715c0.394-0.163,0.831-0.244,1.312-0.244
			c0.531,0,0.999,0.085,1.404,0.256s0.717,0.422,0.936,0.754c0.218,0.332,0.335,0.708,0.352,1.128L96.947,7.96
			c-0.049-0.453-0.215-0.794-0.496-1.025s-0.697-0.347-1.248-0.347c-0.572,0-0.99,0.105-1.252,0.315s-0.393,0.463-0.393,0.759
			c0,0.257,0.092,0.469,0.277,0.635c0.183,0.166,0.658,0.336,1.429,0.51s1.298,0.326,1.585,0.457
			c0.416,0.192,0.724,0.435,0.922,0.73c0.199,0.295,0.299,0.634,0.299,1.018c0,0.381-0.109,0.74-0.328,1.077
			c-0.218,0.337-0.531,0.599-0.939,0.786s-0.868,0.281-1.379,0.281c-0.648,0-1.191-0.094-1.629-0.283s-0.781-0.473-1.03-0.852
			S92.385,11.212,92.371,10.734z"/>
		<path fill="#FFFFFF" d="M99.242,13.034V5.875h0.879v2.568c0.41-0.475,0.928-0.713,1.553-0.713c0.384,0,0.717,0.076,1,0.227
			s0.486,0.36,0.608,0.627s0.183,0.654,0.183,1.162v3.286h-0.879V9.748c0-0.439-0.095-0.759-0.285-0.959s-0.46-0.3-0.809-0.3
			c-0.26,0-0.505,0.068-0.734,0.203s-0.393,0.318-0.49,0.549s-0.146,0.55-0.146,0.957v2.837H99.242z"/>
		<path fill="#FFFFFF" d="M108.177,12.394c-0.325,0.277-0.639,0.472-0.94,0.586c-0.301,0.114-0.623,0.171-0.969,0.171
			c-0.57,0-1.008-0.139-1.313-0.417s-0.459-0.634-0.459-1.067c0-0.254,0.058-0.486,0.173-0.696c0.116-0.21,0.268-0.378,0.455-0.505
			c0.187-0.127,0.397-0.223,0.632-0.288c0.173-0.045,0.433-0.089,0.781-0.132c0.71-0.084,1.231-0.186,1.567-0.303
			c0.004-0.121,0.005-0.197,0.005-0.229c0-0.358-0.083-0.61-0.249-0.757c-0.225-0.199-0.559-0.298-1.001-0.298
			c-0.413,0-0.719,0.073-0.915,0.217c-0.197,0.145-0.344,0.401-0.438,0.769l-0.859-0.117c0.078-0.368,0.207-0.665,0.386-0.891
			s0.438-0.4,0.776-0.522s0.73-0.183,1.177-0.183c0.442,0,0.802,0.052,1.079,0.156s0.48,0.235,0.61,0.393s0.222,0.357,0.273,0.598
			c0.029,0.15,0.044,0.42,0.044,0.811v1.172c0,0.817,0.019,1.333,0.057,1.55c0.037,0.217,0.111,0.424,0.222,0.623h-0.918
			C108.262,12.852,108.203,12.638,108.177,12.394z M108.104,10.431c-0.318,0.13-0.797,0.241-1.436,0.332
			c-0.361,0.052-0.617,0.111-0.767,0.176s-0.265,0.161-0.347,0.286s-0.122,0.265-0.122,0.417c0,0.234,0.089,0.43,0.267,0.586
			c0.177,0.156,0.437,0.234,0.778,0.234c0.339,0,0.64-0.074,0.903-0.222s0.457-0.351,0.581-0.608
			c0.095-0.199,0.142-0.492,0.142-0.879V10.431z"/>
		<path fill="#FFFFFF" d="M110.335,13.034V7.848h0.791v0.786c0.202-0.368,0.388-0.61,0.56-0.728c0.17-0.117,0.358-0.176,0.563-0.176
			c0.296,0,0.597,0.094,0.903,0.283L112.85,8.83c-0.215-0.127-0.43-0.19-0.645-0.19c-0.191,0-0.365,0.058-0.518,0.173
			s-0.262,0.276-0.327,0.481c-0.098,0.312-0.146,0.654-0.146,1.025v2.715H110.335z"/>
		<path fill="#FFFFFF" d="M117.215,11.364l0.908,0.112c-0.144,0.531-0.409,0.942-0.797,1.235c-0.387,0.293-0.882,0.439-1.484,0.439
			c-0.758,0-1.359-0.234-1.804-0.701s-0.667-1.122-0.667-1.965c0-0.873,0.225-1.549,0.674-2.031s1.032-0.723,1.748-0.723
			c0.693,0,1.26,0.236,1.699,0.708s0.66,1.136,0.66,1.992c0,0.052-0.002,0.13-0.006,0.234h-3.867
			c0.033,0.57,0.194,1.006,0.484,1.309c0.289,0.303,0.65,0.454,1.084,0.454c0.322,0,0.597-0.084,0.824-0.254
			C116.9,12.005,117.081,11.735,117.215,11.364z M114.328,9.943h2.896c-0.039-0.436-0.15-0.763-0.332-0.981
			c-0.28-0.338-0.644-0.508-1.09-0.508c-0.403,0-0.742,0.135-1.018,0.405S114.357,9.49,114.328,9.943z"/>
	</g>
	<g>
		<g>
			<path fill="#FFFFFF" d="M236.713,13.034V5.875h5.176V6.72h-4.229v2.192h3.961v0.84h-3.961v2.437h4.395v0.845H236.713z"/>
			<path fill="#FFFFFF" d="M243.242,13.034V7.848h0.791v0.737c0.381-0.57,0.931-0.854,1.65-0.854c0.312,0,0.6,0.056,0.861,0.168
				s0.458,0.26,0.588,0.442c0.131,0.182,0.222,0.399,0.273,0.649c0.033,0.163,0.049,0.448,0.049,0.854v3.188h-0.879V9.879
				c0-0.358-0.033-0.625-0.102-0.803s-0.189-0.319-0.364-0.425s-0.378-0.159-0.612-0.159c-0.375,0-0.697,0.119-0.97,0.356
				s-0.407,0.688-0.407,1.353v2.832H243.242z"/>
		</g>
		<g opacity="0.7">
			<path fill="#FFFFFF" d="M287.136,10.524l0.947,0.239c-0.198,0.778-0.556,1.372-1.071,1.78c-0.517,0.408-1.146,0.613-1.893,0.613
				c-0.771,0-1.398-0.157-1.883-0.471c-0.482-0.314-0.851-0.769-1.104-1.365c-0.252-0.596-0.378-1.235-0.378-1.919
				c0-0.746,0.143-1.396,0.427-1.951c0.285-0.555,0.69-0.977,1.217-1.265c0.525-0.288,1.104-0.432,1.735-0.432
				c0.716,0,1.318,0.182,1.807,0.547s0.829,0.877,1.021,1.538l-0.933,0.22c-0.166-0.521-0.407-0.9-0.723-1.138
				s-0.713-0.356-1.191-0.356c-0.55,0-1.01,0.132-1.38,0.396c-0.369,0.264-0.629,0.618-0.778,1.062s-0.225,0.902-0.225,1.375
				c0,0.609,0.089,1.14,0.267,1.594c0.177,0.454,0.453,0.793,0.827,1.018s0.78,0.337,1.216,0.337c0.531,0,0.98-0.153,1.348-0.459
				S287.006,11.126,287.136,10.524z"/>
			<path fill="#FFFFFF" d="M288.664,13.034v-0.713l3.301-3.789c-0.375,0.02-0.705,0.029-0.991,0.029h-2.114V7.848h4.238v0.581
				l-2.808,3.291l-0.542,0.601c0.395-0.029,0.764-0.044,1.108-0.044h2.397v0.757H288.664z"/>
		</g>
		<rect x="252.664" y="9.105" opacity="0.7" fill="#FFFFFF" width="24" height="1"/>
	</g>
	<g>
		<g>
			<path fill="#FFFFFF" d="M9.53,18.167l-1.143-0.012L7.912,18.08c-0.301-0.041-0.601-0.082-0.896-0.149
				c-3.271-0.758-5.839-3.493-6.393-6.804c-0.035-0.206-0.062-0.416-0.089-0.625L0.5,10.234L0.495,9.112l0.081-0.514
				c0.034-0.256,0.067-0.512,0.12-0.763c0.688-3.314,3.495-6.003,6.827-6.54c0.204-0.033,0.41-0.061,0.617-0.087L8.427,1.17
				L9.55,1.166l0.509,0.081c0.282,0.036,0.565,0.073,0.842,0.138c2.282,0.533,4.195,1.922,5.388,3.911
				c1.193,1.991,1.517,4.337,0.91,6.606c-0.839,3.14-3.548,5.606-6.741,6.138c-0.198,0.033-0.399,0.059-0.6,0.085L9.53,18.167z
				 M9.442,2.165L8.271,2.2C8.074,2.225,7.878,2.25,7.684,2.283C4.751,2.754,2.28,5.121,1.675,8.038
				C1.628,8.265,1.599,8.497,1.567,8.729L1.493,9.225l0.033,1.149c0.025,0.196,0.051,0.392,0.084,0.585
				c0.488,2.92,2.751,5.329,5.632,5.997c0.264,0.061,0.533,0.097,0.804,0.133l0.525,0.083l1.158-0.04
				c0.188-0.024,0.377-0.049,0.563-0.08c2.813-0.468,5.2-2.642,5.938-5.41c0.537-2.005,0.252-4.077-0.801-5.833
				c-1.052-1.755-2.741-2.98-4.757-3.452c-0.244-0.057-0.493-0.087-0.742-0.12L9.442,2.165z"/>
		</g>
		<path fill="#FFFFFF" d="M7.451,13.519c0.014,0.108,0.017,0.177,0.032,0.242c0.123,0.503,0.675,0.782,1.157,0.539
			c0.648-0.326,1.227-0.763,1.747-1.272c0.052-0.05,0.104-0.112,0.121-0.178c0.021-0.072,0.028-0.178-0.011-0.227
			c-0.039-0.049-0.148-0.075-0.219-0.062c-0.109,0.02-0.213,0.077-0.318,0.121c-0.096,0.042-0.187,0.094-0.284,0.128
			c-0.14,0.046-0.213-0.007-0.206-0.155c0.004-0.093,0.025-0.187,0.047-0.277c0.297-1.206,0.6-2.411,0.891-3.618
			c0.098-0.405-0.141-0.801-0.531-0.945C9.609,7.718,9.354,7.732,9.112,7.876C8.545,8.218,8.003,8.595,7.528,9.06
			C7.463,9.125,7.399,9.203,7.367,9.287c-0.025,0.068-0.03,0.177,0.009,0.227c0.038,0.049,0.149,0.079,0.216,0.062
			c0.135-0.031,0.259-0.105,0.392-0.147c0.124-0.04,0.291-0.125,0.374-0.077c0.135,0.077,0.053,0.257,0.02,0.389
			c-0.234,0.963-0.475,1.927-0.713,2.891C7.59,12.938,7.516,13.247,7.451,13.519z"/>
		<path fill="#FFFFFF" d="M8.242,6.075C8.236,6.72,8.748,7.242,9.391,7.245c0.632,0.004,1.156-0.51,1.164-1.143
			c0.008-0.641-0.509-1.165-1.152-1.169C8.766,4.928,8.248,5.437,8.242,6.075z"/>
	</g>
	<g>
		<polygon fill="#FFFFFF" points="83.45,15.473 73.866,9.899 83.428,3.64 83.975,4.477 75.769,9.849 83.952,14.609 		"/>
		<path fill="#FFFFFF" d="M81.644,4.034c-0.009,1.147,0.901,2.077,2.045,2.083c1.124,0.007,2.058-0.909,2.071-2.036
			c0.014-1.137-0.907-2.07-2.052-2.08C82.575,1.992,81.654,2.9,81.644,4.034z"/>
		<path fill="#FFFFFF" d="M72.76,9.85c-0.01,1.147,0.901,2.077,2.045,2.083c1.124,0.007,2.057-0.909,2.07-2.036
			c0.015-1.137-0.906-2.07-2.051-2.08C73.691,7.808,72.77,8.716,72.76,9.85z"/>
		<path fill="#FFFFFF" d="M81.644,15.018c-0.009,1.146,0.901,2.076,2.045,2.082c1.124,0.007,2.058-0.909,2.071-2.036
			c0.014-1.137-0.907-2.07-2.052-2.08C82.575,12.975,81.654,13.883,81.644,15.018z"/>
	</g>
</g>
<g id="osa" display="none">
</g>
<g id="osa_copy" display="none">
</g>
<g id="context" display="none">
</g>
<g id="dilo" display="none">
</g>
<g id="dilo_copy" display="none">
</g>
<g id="dilo_copy_2" display="none">
</g>
<g id="dilo_copy_3" display="none">
</g>
<g id="about" display="none">
</g>
<g id="register" display="none">
</g>
<g id="register_copy" display="none">
</g>
<g id="register_copy_2" display="none">
	<g display="inline">
		<g>
			<rect x="-8.487" y="-63.428" fill="none" width="437" height="68.867"/>
			<text transform="matrix(1 0 0 1 -8.4873 -54.1323)"><tspan x="0" y="0" font-family="'Fabrik-Regular'" font-size="13">The Inter-war Aavantgarde</tspan><tspan x="0" y="21" font-family="'Fabrik-Regular'" font-size="13">Under the German Occupation</tspan><tspan x="0" y="42" font-family="'Fabrik-Regular'" font-size="13">Art under Communism </tspan><tspan x="228" y="0" font-family="'Fabrik-Regular'" font-size="13">Occupation &amp; Normalisation</tspan><tspan x="228" y="21" font-family="'Fabrik-Regular'" font-size="13">Last Decade of the Regime</tspan><tspan x="228" y="42" font-family="'Fabrik-Regular'" font-size="13">Art after the Velvet Revolution  </tspan></text>
		</g>
	</g>
</g>
</svg>
