<?xml version="1.0" encoding="utf-8"?>
<!-- Generator: Adobe Illustrator 16.0.0, SVG Export Plug-In . SVG Version: 6.00 Build 0)  -->
<!DOCTYPE svg PUBLIC "-//W3C//DTD SVG 1.1//EN" "http://www.w3.org/Graphics/SVG/1.1/DTD/svg11.dtd">
<svg version="1.1" xmlns="http://www.w3.org/2000/svg" xmlns:xlink="http://www.w3.org/1999/xlink" x="0px" y="0px" width="16px"
	 height="16px" viewBox="0 0 16 16" enable-background="new 0 0 16 16" xml:space="preserve">
<g id="HP">
	<g>
		<path fill="#FFFFFF" d="M6.5,0h-6C0.225,0,0,0.226,0,0.5v6C0,6.776,0.225,7,0.5,7h6C6.775,7,7,6.776,7,6.5v-6
			C7,0.226,6.775,0,6.5,0z"/>
		<path fill="#FFFFFF" d="M15.5,0h-6C9.225,0,9,0.226,9,0.5v6C9,6.776,9.225,7,9.5,7h6C15.775,7,16,6.776,16,6.5v-6
			C16,0.226,15.775,0,15.5,0z"/>
		<path fill="#FFFFFF" d="M6.5,9h-6C0.225,9,0,9.226,0,9.5v6C0,15.776,0.225,16,0.5,16h6C6.775,16,7,15.776,7,15.5v-6
			C7,9.226,6.775,9,6.5,9z"/>
		<path fill="#FFFFFF" d="M15.5,9h-6C9.225,9,9,9.226,9,9.5v6C9,15.776,9.225,16,9.5,16h6c0.275,0,0.5-0.224,0.5-0.5v-6
			C16,9.226,15.775,9,15.5,9z"/>
	</g>
</g>
<g id="osa" display="none">
</g>
<g id="osa_copy" display="none">
</g>
<g id="context" display="none">
</g>
<g id="dilo" display="none">
</g>
<g id="dilo_copy" display="none">
</g>
<g id="dilo_copy_2" display="none">
</g>
<g id="dilo_copy_3" display="none">
</g>
<g id="about" display="none">
</g>
<g id="register" display="none">
</g>
<g id="register_copy" display="none">
</g>
<g id="register_copy_2" display="none">
</g>
</svg>
