<?xml version="1.0" encoding="utf-8"?>
<!-- Generator: Adobe Illustrator 16.0.0, SVG Export Plug-In . SVG Version: 6.00 Build 0)  -->
<!DOCTYPE svg PUBLIC "-//W3C//DTD SVG 1.1//EN" "http://www.w3.org/Graphics/SVG/1.1/DTD/svg11.dtd">
<svg version="1.1" xmlns="http://www.w3.org/2000/svg" xmlns:xlink="http://www.w3.org/1999/xlink" x="0px" y="0px" width="16px"
	 height="16px" viewBox="0 0 16 16" enable-background="new 0 0 16 16" xml:space="preserve">
<g id="bckg_1_">
</g>
<g id="grid_1164" display="none">
</g>
<g id="grid_1000px_x2F_4co_x2F_20" display="none">
</g>
<g id="intro" display="none">
</g>
<g id="about" display="none">
</g>
<g id="MENU" display="none">
</g>
<g id="index" display="none">
</g>
<g id="OSA" display="none">
</g>
<g id="OSA_copy">
	<g>
		<path d="M6.5,0h-6C0.225,0,0,0.225,0,0.5v6C0,6.775,0.225,7,0.5,7h6C6.775,7,7,6.775,7,6.5v-6C7,0.225,6.775,0,6.5,0z"/>
		<path d="M15.5,0h-6C9.225,0,9,0.225,9,0.5v6C9,6.775,9.225,7,9.5,7h6C15.775,7,16,6.775,16,6.5v-6C16,0.225,15.775,0,15.5,0z"/>
		<path d="M6.5,9h-6C0.225,9,0,9.225,0,9.5v6C0,15.775,0.225,16,0.5,16h6C6.775,16,7,15.775,7,15.5v-6C7,9.225,6.775,9,6.5,9z"/>
		<path d="M15.5,9h-6C9.225,9,9,9.225,9,9.5v6C9,15.775,9.225,16,9.5,16h6c0.275,0,0.5-0.225,0.5-0.5v-6C16,9.225,15.775,9,15.5,9z"
			/>
	</g>
</g>
<g id="OSA3" display="none">
</g>
<g id="detail_x5F_context" display="none">
</g>
<g id="detail_x5F_context_copy" display="none">
</g>
<g id="detail_x5F_context2" display="none">
</g>
<g id="detail_x5F_dílo" display="none">
</g>
<g id="detail_x5F_dílo_copy" display="none">
</g>
<g id="OSA2" display="none">
</g>
<g id="INFO" display="none">
</g>
<g id="INFO_copy" display="none">
</g>
<g id="bckgrnds" display="none">
</g>
<g id="Layer_6_copy_2" display="none">
</g>
<g id="browser_img">
</g>
<g id="top">
</g>
<g id="Layer_7" display="none">
</g>
</svg>
