<?xml version="1.0" encoding="utf-8"?>
<!-- Generator: Adobe Illustrator 16.0.0, SVG Export Plug-In . SVG Version: 6.00 Build 0)  -->
<!DOCTYPE svg PUBLIC "-//W3C//DTD SVG 1.1//EN" "http://www.w3.org/Graphics/SVG/1.1/DTD/svg11.dtd">
<svg version="1.1" id="Layer_1" xmlns="http://www.w3.org/2000/svg" xmlns:xlink="http://www.w3.org/1999/xlink" x="0px" y="0px"
	 width="31.687px" height="48.244px" viewBox="0 0 31.687 48.244" enable-background="new 0 0 31.687 48.244" xml:space="preserve">
<g>
	<path d="M11.801,9.678c-0.234-0.234-0.234-0.494-0.234-0.703c0-0.114-0.023-0.227-0.042-0.329
		c-0.021-0.111-0.037-0.214-0.043-0.304l-0.086-0.384c-0.142-0.622-0.275-1.209-0.35-1.804c-0.161-0.805-0.334-1.674-0.589-2.438
		c-0.071-0.212-0.116-0.413-0.159-0.604c-0.062-0.273-0.11-0.49-0.232-0.694l-0.045-0.099C9.95,2.104,9.826,1.723,9.736,1.633
		l0.354-0.918c0.45,0.112,1.049,0.51,1.368,0.831c0.335,0.334,0.56,0.694,0.673,1.074c0.3-0.041,0.642-0.056,0.93,0.017
		c0.701,0.115,1.346,0.945,1.495,1.645c0.107,0.264,0.107,0.561,0.107,0.763c0,0.493-0.158,0.727-0.468,0.954
		c-0.152,0.262-0.821,0.594-0.821,0.594v-1c0,0-0.132,0.029-0.146,0.04c0.024-0.019,0.085-0.096,0.136-0.199l0.171-0.193
		c0.076-0.051,0.111-0.077,0.126-0.091c-0.002-0.006,0.002-0.04,0.002-0.104c0-0.086,0-0.316-0.034-0.387l-0.047-0.142
		c-0.061-0.359-0.46-0.856-0.725-0.9c-0.23-0.055-0.616-0.021-1.021,0.079l-0.451-0.352c0.006,0.019,0.013,0.039,0.019,0.058
		c0.274,0.824,0.454,1.724,0.627,2.594c0.074,0.581,0.202,1.145,0.338,1.743l0.109,0.54c0,0.054,0.016,0.119,0.028,0.19
		c0.029,0.158,0.059,0.333,0.059,0.509c0,0.046-0.002,0.083,0.002,0.114c-0.003-0.026-0.024-0.083-0.061-0.118L11.801,9.678z"/>
	<path d="M20.375,4.164h-1V3.558c0-0.206,0.056-0.379,0.097-0.505c0.006-0.018,0.013-0.039,0.019-0.059
		c-0.045-0.046-0.086-0.101-0.119-0.166c-0.017,0.008-0.034,0.017-0.053,0.025c-0.098,0.048-0.195,0.094-0.303,0.13L18.357,2.51
		c0-0.117-0.015-0.239-0.086-0.453C18.219,1.9,18.137,1.78,18.013,1.597l-0.081-0.12C17.685,1.149,17.462,1,17.202,1
		c-0.381,0-0.779,0.207-1.076,0.555c-0.108,0.205-0.307,0.346-0.499,0.483c-0.076,0.055-0.195,0.14-0.252,0.196V2.51l-0.5,0.5
		c-0.926,0-0.926,0-1.171,0.122c-0.165,0.136-0.329,0.432-0.329,0.689v0.343h-1V3.82c0-0.573,0.309-1.161,0.806-1.536
		c0.435-0.224,0.603-0.266,1.209-0.273c0.072-0.37,0.405-0.608,0.656-0.787c0.073-0.053,0.186-0.133,0.215-0.167
		C15.804,0.355,16.494,0,17.202,0c0.87,0,1.378,0.677,1.545,0.899l0.093,0.136c0.146,0.215,0.284,0.418,0.38,0.706
		c0.008,0.022,0.015,0.044,0.021,0.066c0.293-0.087,0.74-0.086,0.943,0.16c0.126,0.152,0.138,0.318,0.128,0.432
		c0.304,0.366,0.175,0.765,0.11,0.962c-0.024,0.077-0.048,0.148-0.048,0.197V4.164z"/>
	<path d="M22.375,6.767c-1,0-1.69-1.115-1.805-1.915C20.565,3.922,20.9,3.239,21.41,2.9c0.396-0.367,0.836-0.367,1.207-0.367
		l0.141-0.006c0.146-0.008,0.354-0.021,0.564,0.029c0.224-0.304,0.521-0.599,0.837-0.756c0.23-0.116,0.464-0.198,0.717-0.286
		c0.122-0.042,0.25-0.087,0.387-0.14c0.064-0.048,0.125-0.078,0.165-0.098l0.711,0.71c-0.102,0.103-0.203,0.153-0.264,0.184
		l-0.168,0.104c-0.18,0.072-0.345,0.129-0.501,0.184c-0.211,0.073-0.404,0.139-0.597,0.235c-0.211,0.106-0.496,0.43-0.65,0.738
		l-0.801,0.13c-0.044-0.044-0.124-0.048-0.33-0.036c-0.448,0.027-0.584-0.002-0.71,0.124l-0.096,0.075
		c-0.228,0.137-0.457,0.542-0.457,1.057c0.058,0.371,0.81,0.985,0.81,0.985V6.767z"/>
	<path d="M24.623,9.164h-1c0-1,0.144-2.008,0.438-3.301c0.013-0.359,0.128-0.674,0.198-0.886c0.038-0.156,0.108-0.306,0.181-0.497
		c0.059-0.158,0.119-0.294,0.158-0.452c0.054-0.388,0.191-0.982,0.325-1.357c0.035-0.099,0.071,0.493,0.105-0.507h-0.008
		l0.035,0.073c0.025-0.075,0.049-0.073,0.071-0.073h0.005c-0.012,0-0.021,0.129-0.023,0.167l0.045-0.072l0.954,0.149l-0.055,0.135
		l0.035,0.014c-0.066,0.233-0.146,0.458-0.224,0.676c-0.122,0.344-0.237,0.669-0.286,1.008c-0.059,0.244-0.13,0.438-0.203,0.633
		c-0.058,0.156-0.117,0.312-0.156,0.467c-0.103,0.312-0.159,0.586-0.159,0.752l-0.013-0.056C24.758,7.293,24.623,8.164,24.623,9.164
		z"/>
	<path d="M12.496,10.217c-0.183,0-0.358-0.051-0.503-0.196l0.709-0.705c-0.082-0.083-0.152-0.1-0.2-0.098
		c0.07-0.001,0.268-0.071,0.374-0.108c0.181-0.063,0.323-0.113,0.467-0.113l0.262,0.005c0.206,0.006,0.399,0.011,0.515-0.028
		c0.432-0.089,0.762,0.014,1.026,0.096c0.154,0.048,0.3,0.093,0.415,0.093h7.814v1h-7.814c-0.268,0-0.504-0.074-0.712-0.139
		c-0.19-0.059-0.354-0.108-0.474-0.086c-0.223,0.079-0.514,0.07-0.798,0.062l-0.234-0.004c0.003,0.006-0.063,0.031-0.137,0.057
		C12.995,10.128,12.739,10.217,12.496,10.217z"/>
	<path d="M24.72,16.36l-0.318-0.948l0.144-0.049c0.168-0.059,0.328-0.115,0.502-0.135c0.132-0.056,0.262-0.095,0.389-0.131
		c0.181-0.051,0.277-0.082,0.344-0.147c0.484-0.335,0.787-0.725,1.029-1.292c0.283-0.706,0.045-1.483-0.271-2.353
		c-0.049-0.184-0.097-0.321-0.146-0.464c-0.073-0.211-0.149-0.435-0.204-0.676l-0.578-0.002c-0.25,0-0.465-0.096-0.622-0.166
		c-0.013-0.006-0.025-0.012-0.037-0.017c-0.113,0.045-0.212,0.073-0.304,0.099c-0.121,0.034-0.173,0.05-0.245,0.098
		c-0.001,0.014-0.07,0.077-0.136,0.136c-0.146,0.132-0.22,0.199-0.306,0.37l-0.094,0.13c-0.053,0.053-0.108,0.156-0.172,0.274
		c-0.06,0.113-0.124,0.231-0.204,0.35l-0.77,0.074l0.015-0.121c-0.203-0.213-0.359-0.344-0.359-0.344v-1
		c0,0,0.498,0.138,0.717,0.308c0.041-0.063,0.021-0.126,0.073-0.186c0.16-0.295,0.297-0.449,0.462-0.598
		c0.054-0.048,0.096-0.101,0.159-0.164c0.283-0.2,0.445-0.249,0.597-0.291c0.088-0.025,0.182-0.051,0.309-0.114l0.221-0.052
		c0.185,0,0.343,0.071,0.483,0.134c0.065,0.029,0.173,0.078,0.213,0.079h0.786c0.172,0,0.432,0,0.618,0.202
		c0.174,0.188,0.157,0.411,0.149,0.518c0.031,0.223,0.105,0.433,0.174,0.631c0.06,0.173,0.116,0.339,0.156,0.5
		c0.357,0.976,0.658,1.983,0.24,3.027c-0.322,0.753-0.753,1.299-1.322,1.678c-0.176,0.19-0.466,0.273-0.7,0.339
		c-0.102,0.029-0.208,0.057-0.314,0.11l-0.224,0.053c-0.054,0-0.171,0.041-0.296,0.085L24.72,16.36z"/>
	<path d="M24.973,22.164h-1c0,0,0.055-0.407,0.103-0.6c0.037-0.149,0.072-0.267,0.072-0.381l0.015-0.109
		c0.041-0.164,0.099-0.323,0.16-0.494c0.067-0.188,0.14-0.385,0.185-0.61c0.118-0.422,0.104-0.88,0.089-1.366
		c-0.006-0.181-0.012-0.361-0.012-0.544c0-0.737-0.262-1.691-0.622-2.268c-0.212-0.418-0.578-0.751-0.718-0.732l-0.164-0.986
		c0.831-0.135,1.51,0.744,1.753,1.23c0.439,0.7,0.751,1.825,0.751,2.757c0,0.171,0.006,0.343,0.011,0.513
		c0.018,0.542,0.035,1.102-0.117,1.634c-0.045,0.237-0.131,0.482-0.214,0.714c-0.043,0.122-0.086,0.238-0.118,0.354
		c-0.009,0.209-0.058,0.358-0.101,0.531C25.008,21.956,24.973,22.164,24.973,22.164z"/>
	<path d="M26.375,24.065c0,0-0.377,0-0.716-0.113c-0.473-0.09-0.623-0.225-0.955-0.558c-0.497-0.319-0.882-0.907-1.112-1.592
		c-0.016-0.049-0.009-0.132-0.035-0.236c-0.133-0.526-0.231-0.836-0.319-0.923c0.053,0.053,0.203,0.071,0.283,0.019l-0.552-0.832
		c0.218-0.146,0.467-0.177,0.696-0.088c0.5,0.193,0.706,0.857,0.888,1.58c0.019,0.073,0.033,0.131,0.045,0.165
		c0.158,0.475,0.462,0.88,0.852,1.14c0.255,0.241,0.104,0.291,0.466,0.363c0.238,0.075,0.46,0.078,0.46,0.078V24.065z"/>
	<path d="M19.843,36.559c-0.742,0-1.544-1.172-1.552-1.184c-0.259-0.509-0.259-0.943-0.259-1.326c0-0.423,0.122-0.927,0.386-1.583
		c0.119-0.3,0.278-0.603,0.452-0.93c0.085-0.161,0.174-0.328,0.263-0.506c0.266-0.445,0.521-0.87,0.683-1.272
		c0.094-0.285,0.076-0.738,0.062-1.139c-0.006-0.148-0.011-0.291-0.011-0.423c-0.083-0.548-0.162-0.995-0.301-1.434
		c-0.041-0.054-0.082-0.098-0.119-0.14c-0.113-0.125-0.254-0.281-0.34-0.539l0.947-0.317c0.02,0.058,0.05,0.093,0.135,0.187
		c0.078,0.086,0.161,0.18,0.245,0.307l0.059,0.12c0.195,0.588,0.286,1.162,0.369,1.747c0.005,0.191,0.01,0.321,0.015,0.457
		c0.019,0.485,0.039,1.035-0.122,1.52c-0.201,0.505-0.478,0.965-0.745,1.41c-0.074,0.151-0.167,0.326-0.256,0.493
		c-0.155,0.293-0.299,0.562-0.406,0.832c-0.212,0.528-0.314,0.925-0.314,1.213c0,0.312,0,0.581,0.122,0.825
		c0.141,0.204,0.572,0.64,0.731,0.689L19.843,36.559z"/>
	<path d="M20.624,30.022l-0.516-0.857c0.324-0.194,0.618-0.623,0.772-0.931c0.167-0.293,0.336-0.531,0.502-0.764
		c0.207-0.289,0.401-0.562,0.533-0.87l0.106-0.157c0.062-0.062,0.142-0.317,0.185-0.454l0.016-0.048
		c-0.006-0.081-0.021-0.161-0.034-0.242c-0.021-0.126-0.04-0.253-0.047-0.379c-0.027-0.089-0.05-0.201-0.081-0.359
		c-0.032-0.164-0.012-0.506-0.066-0.598c0.025,0.045,0.381,0.139,0.381,0.139v-1c0,0,0.643,0.703,0.754,1.267
		c0.021,0.11-0.006,0.207,0.013,0.262l0.019,0.194c0,0.104,0.009,0.208,0.026,0.312c0.025,0.158,0.044,0.316,0.044,0.475
		l-0.066,0.279c-0.078,0.249-0.176,0.551-0.361,0.78c-0.17,0.373-0.392,0.682-0.605,0.982c-0.147,0.205-0.299,0.415-0.435,0.653
		C21.667,28.899,21.262,29.639,20.624,30.022z"/>
	<path d="M28.375,20.937v-1c0-0.025,0.292-0.199,0.923-1.041l0.055-0.085c0.356-0.402,0.581-0.911,0.743-1.46
		c-0.035,0.021-0.072,0.041-0.106,0.062c-0.227,0.134-0.462,0.273-0.764,0.349l-0.458,0.02c-0.573,0.014-1.124,0.025-1.688-0.351
		c-0.317-0.19-0.579-0.265-0.946-0.265h-0.758v-1h0.758c0.548,0,0.99,0.126,1.481,0.42c0.309,0.205,0.6,0.207,1.13,0.196
		l0.287-0.004c0.143-0.044,0.283-0.128,0.444-0.224c0.115-0.069,0.234-0.139,0.365-0.204l0.103-0.038
		c0.253-0.063,0.369-0.146,0.46-0.329l0.94,0.306c-0.189,1.135-0.45,2.307-1.232,3.188C29.432,20.385,29.375,20.937,28.375,20.937z"
		/>
	<path d="M28.122,24.095l-0.705-0.709l0.353,0.354l-0.48-0.03c0.004,0.143,0.075,0.237,0.103,0.261
		c-0.038-0.033-0.174-0.112-0.264-0.164c-0.37-0.214-0.753-0.435-0.753-0.853v-0.961c0-0.414,0.285-0.753,0.537-1.053
		c0.111-0.132,0.298-0.354,0.313-0.442c-0.203-0.374,0.101-0.706,0.286-0.9c-0.064-0.044-0.137-0.075-0.137-0.075v-1
		c0,0,0.885,0.38,1.088,0.584c0.129,0.129,0.173,0.297,0.171,0.47c-0.003,0.304-0.221,0.501-0.371,0.646
		c-0.016,0.016-0.042,0.034-0.061,0.053c0.147,0.518-0.236,0.97-0.521,1.309c-0.107,0.127-0.307,0.339-0.307,0.423v0.781
		c0,0.05,0.181,0.111,0.253,0.153c0.329,0.19,0.613,0.354,0.656,0.685L28.122,24.095z"/>
	<path d="M29.062,27.508l-0.443-0.896c-0.129,0.064-0.184,0.167-0.193,0.202c0.042-0.145,0.02-0.691,0.011-0.896
		c-0.004-0.109-0.008-0.199-0.008-0.255c0-0.56-0.082-1.131-0.243-1.698c-0.068-0.272-0.203-0.566-0.372-0.82
		c-0.055-0.082-0.104-0.177-0.151-0.272c-0.031-0.062-0.078-0.156-0.102-0.182c0.032,0.035,0.119,0.066,0.179,0.051l-0.242-0.97
		c0.653-0.162,0.948,0.431,1.06,0.654c0.028,0.057,0.056,0.115,0.089,0.165c0.135,0.203,0.381,0.618,0.507,1.116
		c0.182,0.641,0.276,1.305,0.276,1.957l0.007,0.214C29.474,26.782,29.475,27.304,29.062,27.508z"/>
	<path d="M31.239,33.71c-0.217-0.108-0.422-0.211-0.566-0.355c-0.228-0.14-0.432-0.345-0.612-0.525
		c-0.358-0.359-0.631-0.769-0.81-1.217c-0.355-0.798-0.551-1.549-0.645-2.495c-0.083-0.665-0.252-1.313-0.487-1.862
		c-0.091-0.269-0.15-0.449-0.33-0.63c-0.108-0.107-0.181-0.23-0.245-0.338c-0.035-0.058-0.088-0.146-0.113-0.167l0.346-0.934
		c0.343,0.114,0.513,0.4,0.626,0.588c0.029,0.049,0.073,0.124,0.094,0.144c0.348,0.348,0.464,0.7,0.558,0.982
		c0.257,0.595,0.45,1.336,0.546,2.105c0.085,0.855,0.251,1.495,0.573,2.217c0.136,0.34,0.333,0.636,0.595,0.899
		c0.169,0.168,0.314,0.314,0.535,0.461c0.117,0.098,0.284,0.181,0.384,0.231L31.239,33.71z"/>
	<path d="M25.008,42.628c-0.212-0.315-0.447-0.665-0.447-1.152c0-0.071-0.013-0.15-0.023-0.232c-0.031-0.231-0.07-0.52,0.024-0.801
		c0.121-0.255,0.227-0.423,0.333-0.591c0.088-0.138,0.177-0.276,0.256-0.434c0.063-0.126,0.112-0.24,0.158-0.345
		c0.077-0.177,0.149-0.337,0.244-0.494c0.013-0.093,0.01-0.2,0.006-0.32c-0.005-0.173-0.011-0.365,0.028-0.573
		c-0.013-0.061-0.049-0.164-0.075-0.237c-0.063-0.182-0.137-0.387-0.137-0.604V35.36c0-0.316,0.063-0.629,0.125-0.931
		c0.068-0.339,0.134-0.66,0.097-0.921c-0.094-0.362-0.045-0.776-0.002-1.142c0.042-0.348,0.081-0.677-0.017-0.938
		c-0.158-0.309-0.314-0.666-0.471-1.023c-0.15-0.342-0.543-0.684-0.714-1.025c-0.254-0.422-0.019-0.685-1.019-0.685v-1
		c1,0,1.66,0.813,1.895,1.205c0.197,0.39,0.475,0.748,0.631,1.104c0.15,0.342,0.361,0.684,0.532,1.025
		c0.204,0.536,0.177,1.024,0.125,1.454c-0.036,0.307-0.056,0.597,0.005,0.832c0.07,0.483-0.008,0.904-0.091,1.312
		c-0.054,0.266-0.097,0.517-0.097,0.732v1.485c0.001,0.048,0.048,0.181,0.08,0.27c0.063,0.181,0.137,0.387,0.137,0.604l-0.015,0.122
		c-0.027,0.107-0.023,0.238-0.02,0.388c0.006,0.196,0.013,0.417-0.047,0.659l-0.069,0.157c-0.091,0.137-0.148,0.275-0.216,0.429
		c-0.053,0.121-0.109,0.25-0.182,0.392c-0.094,0.189-0.199,0.356-0.306,0.523c-0.088,0.139-0.177,0.277-0.256,0.436
		c0.001,0,0.001,0,0.001,0c0.006,0,0.029,0.171,0.045,0.286c0.018,0.129,0.032,0.254,0.032,0.366c0,0.173,0.097,0.326,0.255,0.561
		L25.008,42.628z"/>
	<path d="M31.375,33.851c0,0-0.615-0.022-0.912-0.045c-0.271-0.021-0.563-0.042-0.813-0.042c-0.929-0.1-1.759-0.492-2.374-1.107
		c-0.126-0.125-0.27-0.238-0.41-0.354c-0.246-0.201-0.525-0.429-0.771-0.735c-0.258-0.254-0.583-0.596-0.697-0.941l0.949-0.314
		c0.022,0.068,0.125,0.225,0.488,0.588c0.218,0.267,0.433,0.443,0.659,0.63c0.166,0.137,0.329,0.271,0.478,0.42
		c0.462,0.462,1.054,0.745,1.712,0.817c0.209-0.002,0.561,0.02,0.857,0.042c0.27,0.021,0.834,0.042,0.834,0.042V33.851z"/>
	<path d="M10.375,21.164H9.009c-0.397,0-0.701-0.25-0.971-0.47c-0.104-0.085-0.279-0.229-0.349-0.244
		c-0.607-0.065-1.16-0.338-1.695-0.603c-0.317-0.157-0.616-0.305-0.894-0.396L4.88,19.364c-0.377-0.146-0.805-0.312-1.236-0.656
		c-0.385-0.255-0.681-0.769-0.82-1.049l-0.037-0.1c-0.085-0.34-0.08-0.571-0.076-0.815l0.003-0.194c0-0.108,0.008-0.184,0.015-0.25
		c0.007-0.068,0.007-0.068-0.018-0.143l0.947-0.317c0.087,0.258,0.081,0.402,0.064,0.563c-0.004,0.038-0.009,0.083-0.009,0.146
		L3.71,16.763c-0.004,0.201-0.006,0.32,0.034,0.5c0.15,0.291,0.34,0.538,0.489,0.638c0.346,0.274,0.652,0.393,1.008,0.53l0.203,0.08
		c0.314,0.104,0.659,0.129,0.993,0.294c0.457,0.226,0.93,0.358,1.32,0.358c0.002,0,0.004,0,0.006,0c0.339,0,0.642,0.393,0.909,0.611
		c0.104,0.086,0.279,0.389,0.349,0.389h1.354V21.164z"/>
	<path d="M4.859,22.157c-0.39,0-0.822-0.038-1.229-0.241c-0.253-0.079-0.501-0.205-0.828-0.53c-0.139-0.139-0.381-0.301-0.615-0.458
		l-0.115-0.102c-0.54-0.649-0.813-1.374-0.813-2.154c0-0.683,0.1-1.342,0.287-1.905c0.031-0.094,0.088-0.209,0.15-0.33
		c0.045-0.087,0.128-0.248,0.135-0.308c-0.002,0.013,0.002,0.062,0.035,0.112l0.832-0.556c0.289,0.433,0.037,0.92-0.114,1.21
		c-0.035,0.069-0.071,0.132-0.089,0.186c-0.154,0.464-0.236,1.013-0.236,1.59c0,0.52,0.181,1.011,0.538,1.46
		c0.263,0.176,0.521,0.353,0.713,0.546c0.202,0.201,0.309,0.25,0.503,0.315c0.374,0.18,0.759,0.167,1.169,0.155
		c0.708-0.021,1.36-0.058,2.03-0.25c0.309-0.063,0.736-0.134,1.007-0.206c0.629-0.166,1.157-0.337,2.157-0.337v1
		c-1,0-1.309,0.148-1.901,0.304c-0.291,0.077-0.659,0.153-0.946,0.21c-0.613,0.177-1.316,0.271-1.974,0.271l-0.322,0.006
		C5.12,22.153,4.982,22.157,4.859,22.157z"/>
	<path d="M7.875,25.737c-0.077,0-0.156-0.005-0.239-0.015l-0.161-0.943c0.072-0.037,0.228-0.229,0.35-0.722
		c0.088-0.439,0.181-0.901,0.371-1.376l0.036-0.115c0.166-0.503,0.371-1.129,0.829-1.68c0.431-0.537,1.016-0.737,1.778-0.609
		c0.164,0.048,0.255,0.086,0.348,0.126c0.16,0.069,0.299,0.128,0.443,0.128l0.224,0.053c0.066,0.033,0.173,0.035,0.388,0.035
		c0.386,0,0.82,0,1.161-0.12c0.328-0.254,0.311-0.706,0.269-0.958c-0.058-0.223-0.196-0.431-0.356-0.672
		c-0.183-0.274-0.2-0.533-0.212-0.722c-0.006-0.078-0.01-0.146-0.024-0.19l-0.052-0.319c-0.066-0.521-0.111-0.782-0.406-1.028
		c-0.255-0.146-0.697-0.146-1.165-0.146c-0.187,0.027-0.437,0.251-0.7,0.488c-0.254,0.228-0.517,0.464-0.851,0.607
		c-0.53,0.179-1.091,0.156-1.537,0.137c-0.117-0.005-0.226-0.009-0.32-0.009c-0.995-0.107-1.789-0.733-2.128-1.635
		C5.8,15.82,5.8,15.562,5.8,15.265c0-0.126,0-0.271,0.051-0.417c-0.16-0.102-0.278-0.224-0.377-0.391
		c-0.171-0.154-0.279-0.365-0.302-0.594c-0.027-0.277,0.068-0.562,0.265-0.794c0.128-0.26,0.357-0.435,0.532-0.567
		c0.057-0.043,0.111-0.083,0.152-0.124c0.227-0.162,0.375-0.238,0.524-0.312c0.113-0.057,0.227-0.112,0.34-0.187l0.101-0.052
		c0.308-0.115,0.599-0.185,0.882-0.25c0.359-0.084,0.67-0.157,0.968-0.327c0.275-0.139,0.459-0.328,0.671-0.546
		c0.152-0.157,0.307-0.314,0.487-0.458c0.178-0.134,0.343-0.278,0.508-0.423c0.185-0.162,0.369-0.323,0.554-0.461
		c0.133-0.075,0.216-0.106,0.31-0.138c0.063-0.021,0.182-0.062,0.218-0.086c-0.061,0.041-0.143,0.192-0.09,0.347l0.947-0.318
		c0.15,0.446-0.104,0.784-0.754,1.005c-0.042,0.014-0.081,0.026-0.109,0.039c-0.087,0.076-0.252,0.22-0.417,0.365
		c-0.185,0.162-0.369,0.323-0.554,0.461c-0.134,0.107-0.258,0.237-0.382,0.364c-0.241,0.248-0.514,0.529-0.917,0.731
		c-0.4,0.229-0.812,0.326-1.212,0.419c-0.229,0.053-0.463,0.107-0.709,0.195c-0.132,0.083-0.262,0.149-0.394,0.215
		c-0.113,0.057-0.228,0.112-0.341,0.188c0.007,0.006-0.083,0.077-0.179,0.149c-0.079,0.061-0.213,0.162-0.239,0.211l-0.117,0.187
		l0.093,0.208c0.014,0.027,0.024,0.046,0.034,0.061c0.38-0.019,0.571,0.189,0.665,0.376l0.054,0.225c0,0.196-0.1,0.345-0.173,0.453
		l-0.039-0.015l-0.109,0.264c0.036-0.036,0.058-0.091,0.061-0.118C6.798,15.182,6.8,15.219,6.8,15.265
		c0,0.216,0.002,0.323,0.034,0.389c0.229,0.603,0.696,0.973,1.269,1.036c0.051-0.001,0.174,0.002,0.305,0.007
		c0.366,0.015,0.825,0.033,1.142-0.072c0.144-0.063,0.335-0.235,0.538-0.417c0.35-0.314,0.746-0.67,1.306-0.74
		c0.631-0.004,1.251-0.004,1.805,0.329c0.674,0.553,0.752,1.17,0.821,1.715l0.028,0.216c0.035,0.078,0.045,0.23,0.053,0.353
		c0.009,0.131,0.015,0.185,0.043,0.227c0.189,0.285,0.398,0.6,0.507,1.029c0.149,0.893-0.12,1.616-0.732,2.023l-0.092,0.048
		c-0.526,0.21-1.113,0.21-1.584,0.21c-0.258,0-0.485,0-0.725-0.091c-0.296-0.021-0.531-0.123-0.725-0.206
		c-0.065-0.028-0.129-0.057-0.193-0.078c-0.392-0.061-0.59,0.058-0.764,0.274c-0.342,0.411-0.5,0.893-0.653,1.359L8.92,23.024
		c-0.166,0.417,0.455,0.815-0.545,1.237c0,0.001,0,0.002,0,0.003c0-0.003,0.221-0.006,0.225-0.01l0.254-0.118
		c0.525-0.439,0.923-0.726,1.127-1.205l0.935-0.026c0.172,0.344,0.039,0.732-0.129,1.077c0.021-0.005,0.048-0.011,0.067-0.018
		c0.15-0.05,0.384-0.28,0.506-0.403l0.131-0.122c0.045-0.041,0.112-0.101,0.131-0.126c-0.028,0.04-0.068,0.17-0.002,0.302
		l0.894-0.449c0.241,0.479-0.172,0.854-0.349,1.015l-0.094,0.088c-0.206,0.206-0.519,0.52-0.894,0.645
		c-0.009,0.003-0.969,0.308-1.541-0.039l-0.188,0.154C9.077,25.332,8.583,25.737,7.875,25.737z"/>
	<path d="M15.015,26.687c-0.416,0-0.929-0.524-1.116-0.797c-0.303-0.315-0.46-0.631-0.626-0.965
		c-0.087-0.144-0.157-0.309-0.21-0.486c-0.076,0.06-0.156,0.116-0.242,0.168c-0.393,0.297-1.809,0.466-2.158,0.293l-0.287-0.46
		v-0.275h0.576l0.054-0.195c0.235,0.032,1.078-0.076,1.261-0.194c0.366-0.223,0.597-0.579,0.844-0.991l0.903,0.415
		c-0.123,0.367-0.063,0.914,0.136,1.244c0.143,0.284,0.237,0.468,0.363,0.629c0.11-0.304,0.322-0.531,0.47-0.68
		c0.195-0.324,0.423-0.574,0.644-0.815c0.206-0.226,0.401-0.439,0.548-0.697c0.142-0.236,0.129-0.618,0.117-0.955l-0.007-0.282
		c0-0.138-0.041-0.297-0.093-0.458l-0.056-0.17l0.948-0.317c0.02,0.056,0.039,0.115,0.059,0.177l0.008,0.022
		c0.15,0.461,0.307,0.938,0.575,1.342l0.147,0.178c0.272,0.341,0.301,0.377,0.695,0.426l-0.125,0.992
		c-0.709-0.089-0.964-0.318-1.282-0.708c-0.033,0.087-0.074,0.173-0.124,0.257c-0.196,0.345-0.438,0.609-0.673,0.866
		c-0.206,0.226-0.401,0.44-0.548,0.697l-0.081,0.106c-0.131,0.131-0.297,0.297-0.297,0.433c0,0.099,0.017,0.181,0.031,0.263
		c0.023,0.136,0.046,0.272,0.046,0.436L15.015,26.687z"/>
	<path d="M18.375,23.164h-1v-2.569c0-0.175,0.022-0.337,0.046-0.491c0.049-0.324,0.047-0.378-0.079-0.505l-0.093-0.129
		c-0.053-0.104-0.183-0.205-0.195-0.288c-0.179-0.041-0.679-0.079-0.679-0.079v-1c1,0,0.908,0.097,1.193,0.192
		c0.415,0.202,0.504,0.538,0.52,0.682l0.019,0.005c0.398,0.462,0.341,0.926,0.29,1.27c-0.017,0.107-0.021,0.221-0.021,0.343V23.164z
		"/>
	<path d="M19.623,18.06c-0.292,0-0.794-0.123-1.062-0.391c-0.453-0.264-0.744-0.708-0.913-1.044
		c-0.565-0.741-1.031-0.997-1.566-0.802l-0.342-0.939c1.45-0.527,2.397,0.741,2.756,1.218c0.205,0.393,0.405,0.624,0.61,0.726
		l0.224,0.225c-0.035-0.072-0.077-0.104-0.078-0.104c0.069,0.051,0.279,0.112,0.363,0.112c-0.061,0.005-0.194,0.077-0.245,0.23
		l0.947,0.317c-0.087,0.26-0.323,0.428-0.634,0.45C19.664,18.06,19.644,18.06,19.623,18.06z"/>
	<path d="M18.375,18.474v-1c0,0,0.586,0,0.873-0.072c0.092-0.032-0.181-0.051-0.092-0.137c0.097-0.188,0.219-0.314,0.219-0.314v1
		c1,0,0.455-0.051,0.527-0.126l0.089,0.067c-0.193,0.193-0.146,0.345-0.521,0.47C19.025,18.474,18.375,18.474,18.375,18.474z"/>
	<path d="M15.823,13.164H15.3c-0.467,0-0.887-0.329-1.256-0.619c-0.139-0.108-0.273-0.216-0.4-0.292
		c-0.214-0.143-0.354-0.363-0.468-0.588c-0.021,0.011-0.04,0.021-0.056,0.029l-0.689,0.668c-0.078,0.052-0.156,0.113-0.234,0.174
		c-0.194,0.151-0.415,0.323-0.671,0.408l-0.314-0.949c0.092-0.031,0.241-0.146,0.372-0.248c0.084-0.065,0.167-0.13,0.251-0.188
		l0.578-0.579c0.101-0.101,0.201-0.151,0.262-0.182c0.031-0.093,0.072-0.166,0.12-0.222c0.104-0.162,0.285-0.267,0.496-0.267
		l0.354,0.146c0.137,0.137,0.225,0.329,0.327,0.551c0.058,0.125,0.163,0.355,0.222,0.412c0.124,0.071,0.295,0.203,0.468,0.339
		c0.181,0.142,0.517,0.405,0.64,0.406h0.523c-0.033-0.004,0.048-0.073,0.096-0.114c0.152-0.128,0.342-0.289,0.604-0.289
		c0.196,0,0.767-0.126,0.899-0.212l0.677,0.733c-0.311,0.309-1.132,0.443-1.465,0.472c-0.021,0.018-0.045,0.038-0.069,0.059
		C16.39,12.961,16.151,13.164,15.823,13.164z"/>
	<path d="M14.076,13.931l-0.158-0.025c-0.104-0.035-0.228-0.05-0.35-0.067c-0.184-0.026-0.366-0.056-0.524-0.108l-0.119-0.059
		c-0.313-0.208-0.626-0.521-0.837-0.837c-0.051-0.038-0.26-0.247-0.26-0.627v0c0.003,0,0.023,0.056,0.06,0.092l0.707-0.707
		c0.233,0.233,0.233,0.491,0.233,0.615l0.092,0.072c0.126,0.189,0.313,0.383,0.501,0.52c0.091,0.022,0.189,0.035,0.289,0.049
		c0.147,0.021,0.295,0.044,0.429,0.08c0.152-0.013,0.325-0.067,0.508-0.127c0.067-0.041,0.139-0.08,0.211-0.118
		c0.185-0.097,0.291-0.004,0.344-0.11c0.035-0.12,0.035-0.41,0.035-0.41h1c0,0,0,0.453-0.114,0.792
		c-0.226,0.462-0.557,0.56-0.798,0.688c-0.063,0.033-0.127,0.028-0.185,0.066l-0.119,0.039
		C14.739,13.843,14.42,13.931,14.076,13.931z"/>
	<path d="M14.426,14.164h-0.262c-0.367,0-0.564-0.325-0.708-0.545c-0.036-0.055-0.068-0.123-0.104-0.16
		c-0.249-0.114-0.353-0.483-0.452-0.834c-0.021-0.077-0.04-0.15-0.06-0.195l-0.05-0.22c0-0.05,0-0.057-0.034-0.125l0.893-0.45
		c0.103,0.203,0.131,0.348,0.139,0.473c0.024,0.068,0.049,0.15,0.074,0.238c0.024,0.085,0.066,0.234,0.1,0.31
		c0.079,0.058,0.146,0.13,0.204,0.207c0.085-0.216,0.229-0.407,0.522-0.407l0.02,0.513l0.391,0.246
		c-0.02,0.047-0.037,0.147-0.057,0.221C14.963,13.733,14.855,14.164,14.426,14.164z"/>
	<path d="M25.132,15.164c-0.329,0-0.543-0.146-0.702-0.315c-0.349-0.368-0.315-0.991-0.292-1.427c0.005-0.084,0.01-0.175,0.01-0.24
		c0-0.287,0.109-0.502,0.198-0.67c0.031-0.061,0.066-0.125,0.09-0.197l0.059-0.12c0.152-0.229,0.178-0.307,0.178-0.422
		c0.029-0.195,0.037-0.308,0.047-0.425c0.038-0.455,0.09-1.077,0.633-1.402l0.608,0.073c0.118,0.117,0.18,0.27,0.244,0.432
		c0.021,0.054,0.041,0.108,0.062,0.146l0.079,0.145c0.112,0.339,0.112,0.577,0.112,0.769l-0.789,0.326
		c-0.002,0.012-0.005,0.023-0.007,0.035c0.009,0.302-0.134,0.567-0.302,0.826c-0.038,0.099-0.084,0.188-0.13,0.275
		c-0.045,0.085-0.083,0.158-0.083,0.198c0,0.081-0.005,0.177-0.011,0.282c-0.008,0.14-0.024,0.436,0.005,0.593
		c0.098-0.05,0.174-0.156,0.313-0.365c0.142-0.158,0.34-0.42,0.371-0.517c-0.009,0.027-0.02,0.122,0.034,0.23l0.895-0.445
		c0.262,0.526-0.395,1.28-0.529,1.415c-0.135,0.22-0.403,0.803-1.044,0.803C25.165,15.164,25.148,15.164,25.132,15.164z"/>
	<path d="M24.375,9.164h-3.659c-0.319,0-0.612-0.062-0.896-0.123c-0.306-0.064-0.59-0.126-0.85-0.088
		c-0.563,0.093-1.389,0.074-1.968-0.272l0.514-0.858c0.276,0.165,0.812,0.223,1.302,0.142c0.441-0.063,0.851,0.022,1.209,0.099
		c0.244,0.052,0.475,0.101,0.688,0.101h3.659V9.164z"/>
	<path d="M10.184,20.164c-0.002,0-0.004,0-0.006,0c-0.354,0-0.618-0.438-0.812-0.637c-0.099-0.077-0.185-0.204-0.281-0.3
		l-0.094-0.17c-0.021-0.04-0.051-0.082-0.164-0.149c-0.155-0.093-0.392-0.244-0.543-0.55l0.895-0.451
		c0.021,0.04,0.051,0.059,0.162,0.125c0.134,0.08,0.326,0.194,0.476,0.419c0.041,0.021,0.104,0.06,0.174,0.125
		c-0.001-0.048-0.003-0.091-0.004-0.121l-0.005-0.172l0.104-0.146c0.037-0.183,0.104-0.521,0.29-0.747v-0.227l0,0v0.812l0.377,0.083
		l-0.025,0.104c0.172,0,0.343-0.102,0.37-0.152c-0.001,0.003-0.011,0.074-0.061,0.323l-0.064,0.093
		c0.014,0.324,0.038,1.012-0.329,1.379C10.516,19.933,10.358,20.164,10.184,20.164z"/>
	<path d="M12.058,21.169c-0.075-0.148-0.18-0.278-0.223-0.307l-0.122-0.089c-0.125-0.125-0.252-0.195-0.412-0.284
		c-0.1-0.056-0.199-0.111-0.298-0.177l-0.231-0.226c-0.005,0.184,0.002,0.355,0.02,0.437l-0.919,0.382
		c-0.145-0.29-0.18-1.598,0.188-2.054c0.15-0.186,0.369-0.273,0.588-0.237c0.3,0.034,0.446,0.295,0.527,0.44l0.46,0.49
		c0.001-0.011,0.076,0.029,0.151,0.071c0.178,0.099,0.378,0.21,0.584,0.403c0.299,0.19,0.503,0.547,0.58,0.701L12.058,21.169z"/>
	<path d="M14.375,22.164h-1v-0.517c-0.032-0.082-0.057-0.163-0.079-0.235c-0.019-0.06-0.048-0.154-0.069-0.206l-0.007-0.005
		c-0.152-0.153-0.305-0.346-0.457-0.544c-0.192-0.25-0.484-0.628-0.648-0.655c-0.229-0.036-0.543,0.059-0.868,0.149
		c-0.299,0.083-0.871,0.168-0.871,0.168v-1c0,0,0.371-0.067,0.605-0.132c0.403-0.111,0.844-0.239,1.301-0.173
		c0.562,0.093,0.94,0.592,1.28,1.032c0.114,0.148,0.224,0.296,0.338,0.416c0.199,0.152,0.276,0.407,0.354,0.654
		c0.025,0.082,0.239,0.165,0.268,0.219c-0.029-0.056-0.146-0.171-0.146-0.171V22.164z"/>
	<path d="M15.362,26.164h-1c0-1,0-0.911,0.203-1.343c0.061-0.219,0.147-0.512,0.23-0.689c0.044-0.094,0.087-0.233,0.116-0.323
		c0.132-0.275,0.132-0.746,0.026-0.957l0.896-0.457c0.244,0.492,0.244,1.257-0.001,1.749c-0.014,0.059-0.071,0.182-0.133,0.313
		c-0.064,0.137-0.136,0.281-0.179,0.454l-0.038,0.309C15.362,25.464,15.362,25.164,15.362,26.164z"/>
	<path d="M7.597,28.731c-0.162,0-0.331-0.013-0.506-0.042c-0.529-0.106-0.94-0.559-1.238-1.154
		c-0.314-0.407-0.314-0.371-0.314-1.371h1c0,1,0.008,0.642,0.162,0.848c0.253,0.488,0.445,0.62,0.572,0.645
		c0.368,0.062,0.804,0.035,1.201-0.125c0.757-0.336,1.344-0.808,1.778-1.46l0.494-0.989c0.073-0.236,0.19-0.485,0.441-0.737
		c0.075-0.075,0.148-0.135,0.218-0.192c0.046-0.038,0.116-0.095,0.128-0.115l0.893,0.45c-0.104,0.208-0.26,0.336-0.385,0.439
		c-0.047,0.039-0.097,0.079-0.146,0.128c-0.102,0.102-0.157,0.203-0.228,0.415l-0.554,1.116c-0.565,0.856-1.312,1.475-2.252,1.892
		C8.546,28.605,8.107,28.731,7.597,28.731z"/>
	<path d="M6.479,32.4c-0.267,0-0.542-0.031-0.823-0.111c-0.975-0.324-1.718-1.239-1.829-2.23c-0.071-0.501-0.064-0.919-0.059-1.324
		L3.771,28.4c0-0.472,0.199-0.835,0.36-1.126L4.24,27.07c0.5-0.756,1.41-1.459,2.305-1.349L6.42,26.713
		c-0.422-0.05-1.014,0.404-1.316,0.858c-0.009,0.027-0.053,0.105-0.096,0.185c-0.132,0.24-0.236,0.429-0.236,0.645l-0.003,0.349
		c-0.006,0.383-0.012,0.745,0.051,1.183c0.069,0.623,0.545,1.206,1.133,1.401c0.401,0.115,0.952,0.086,1.63-0.109
		c0.302-0.097,0.793,0.019,0.793,0.081v0.002c0-0.134,0.664-0.144,0.902-0.145l0.098,0.442v-0.442l-0.178,1l-0.2-1h0.378v1H8.997
		c-0.262-0.008-0.346,0.023-0.363,0.032L8.472,32.29c-0.319,0.106-0.574-0.012-0.713-0.075C7.372,32.307,6.939,32.4,6.479,32.4z"/>
	<path d="M3.418,40.578c-0.332,0-0.64-0.024-0.936-0.048c-0.248-0.02-0.486-0.04-0.725-0.04L1.6,40.465
		c-0.108-0.036-0.199-0.054-0.289-0.072c-0.105-0.021-0.211-0.042-0.33-0.078C0.692,40.312,0.206,40.276,0,39.867l0.093-0.579
		c0.105-0.106,0.211-0.186,0.316-0.266c0.069-0.052,0.14-0.103,0.208-0.172l0.13-0.093c0.071-0.036,0.191-0.096,0.213-0.126
		l0.094-0.13c0.145-0.144,0.31-0.383,0.47-0.614c0.09-0.13,0.18-0.26,0.27-0.38c0.375-0.768,0.812-1.639,1.155-2.58
		c0.231-0.43,0.373-0.815,0.523-1.223c0.157-0.426,0.319-0.868,0.557-1.295l0.084-0.11c0.083-0.083,0.156-0.167,0.227-0.247
		c0.158-0.179,0.322-0.365,0.547-0.515c0.155-0.082,0.322-0.166,0.367-0.205l0.7,0.714c-0.145,0.143-0.349,0.245-0.565,0.354
		c-0.062,0.047-0.173,0.171-0.3,0.314c-0.068,0.077-0.139,0.157-0.216,0.238c-0.185,0.343-0.319,0.71-0.462,1.098
		c-0.157,0.425-0.319,0.865-0.555,1.291c-0.331,0.924-0.78,1.822-1.215,2.69c-0.13,0.186-0.212,0.306-0.295,0.425
		c-0.17,0.246-0.346,0.5-0.534,0.701c-0.069,0.111-0.153,0.198-0.241,0.269c0.084,0.018,0.171,0.037,0.266,0.065
		c0.239,0.003,0.479,0.022,0.727,0.042c0.271,0.021,0.552,0.044,0.855,0.044c0.514,0,0.919,0,1.402-0.081
		c0.277-0.056,0.582-0.162,0.936-0.286l0.385-0.132c0.96-0.349,1.723-0.846,2.319-1.518c0.181-0.181,0.319-0.362,0.46-0.542
		c0.165-0.213,0.332-0.425,0.521-0.614c-0.009-0.005,0.061-0.094,0.132-0.187c0.08-0.102,0.229-0.293,0.249-0.367l0.997,0.034
		c0,0.361-0.243,0.673-0.457,0.948c-0.056,0.071-0.109,0.14-0.151,0.203c-0.223,0.236-0.361,0.417-0.502,0.598
		c-0.165,0.213-0.332,0.425-0.521,0.614c-0.681,0.767-1.602,1.371-2.717,1.776l-0.386,0.132c-0.372,0.13-0.724,0.252-1.084,0.325
		C4.419,40.578,3.955,40.578,3.418,40.578z"/>
	<path d="M7.634,46.031c-0.088,0-0.178-0.013-0.269-0.043l-0.342-0.474c0-0.306,0.171-0.559,0.321-0.782
		c0.05-0.075,0.126-0.188,0.141-0.231l0.059-0.12c0.134-0.201,0.202-0.367,0.28-0.681c0.072-0.602,0.072-1.296,0.072-1.968
		c0-0.279-0.021-0.508-0.039-0.73c-0.04-0.461-0.081-0.938,0.051-1.528c0.056-0.276,0.167-0.697,0.248-0.828
		c0.072-0.115,0.089,0.519,0.089-0.481h1c0,1-0.139,0.847-0.239,1.009c-0.061,0.098-0.098,0.277-0.119,0.386
		c-0.101,0.45-0.069,0.875-0.033,1.295c0.021,0.249,0.043,0.537,0.043,0.823c0,0.726,0,1.467-0.091,2.189
		c-0.068,0.286-0.138,0.52-0.246,0.744c0.267-0.141,0.55-0.325,0.836-0.554c0.604-0.609,1.082-1.19,1.461-1.797
		c0.509-0.681,0.835-1.333,1.081-2.15L12,39.976c0.135-0.203,0.278-0.288,0.409-0.335l0.028-0.049
		c0.308-0.457,0.771-0.437,0.97-0.431l0.058,1.002l-0.09-1l0.09,1c-0.141-0.004-0.202-0.006-0.222-0.001
		c-0.094,0.226-0.246,0.331-0.396,0.388c-0.275,0.865-0.64,1.572-1.168,2.276c-0.396,0.637-0.917,1.277-1.618,1.978
		c-0.522,0.422-1.006,0.713-1.479,0.902c-0.088,0.03-0.154,0.065-0.224,0.1C8.161,45.905,7.909,46.031,7.634,46.031z"/>
	<path d="M20.229,48.244c-0.413-0.331-0.841-0.587-1.255-0.835l-0.097-0.075l-0.698-0.699c-0.209-0.127-0.533-0.342-0.763-0.688
		c-0.553-0.638-1.01-1.487-1.285-2.404l-0.273-1.357c-0.037-0.22-0.061-0.426-0.07-0.628c-0.224,0.314-0.474,0.612-0.746,0.884
		c-0.659,0.755-1.531,1.146-2.439,1.509c-0.38,0.192-0.808,0.298-1.233,0.298c-0.037,0-0.086,0.007-0.14,0.013
		c-0.235,0.027-0.528,0.061-0.783-0.065l0.403-0.911c0.049,0.01,0.189-0.007,0.265-0.017c0.098-0.011,0.187-0.02,0.255-0.02
		c0.269,0,0.546-0.07,0.824-0.209c0.859-0.345,1.582-0.667,2.119-1.28c0.702-0.704,1.242-1.601,1.466-2.423
		c0.096-0.482,0.42-0.95,0.691-1.331c0.121-0.308-0.094-0.804,0.906-1.05c0,0,0-0.001,0-0.001l0.427,0.833
		c-0.06,0.055-0.243,0.319-0.308,0.461c-0.064,0.143-0.159,0.277-0.22,0.382c-0.235,0.723-0.335,1.389-0.415,2.034
		c-0.082,0.49-0.09,0.873-0.011,1.341l0.255,1.295c0.225,0.738,0.611,1.461,1.111,2.043c0.155,0.228,0.368,0.37,0.596,0.521
		l0.729,0.717c0.426,0.256,0.866,0.523,1.314,0.882L20.229,48.244z"/>
	<path d="M25.807,44.82c-0.239,0-0.442-0.06-0.682-0.143c-0.089-0.031-0.188-0.065-0.308-0.099
		c-0.417-0.082-0.859-0.181-1.266-0.383c-0.208-0.104-0.415-0.193-0.616-0.28c-0.319-0.138-0.624-0.272-0.899-0.437
		c-1.021-0.402-1.812-1.553-1.812-2.701c0-0.162-0.056-0.354-0.114-0.558c-0.086-0.297-0.182-0.63-0.146-0.995
		c-0.037-0.062-0.133-0.166-0.192-0.231c-0.186-0.204-0.396-0.435-0.396-0.75l0.989-0.079c-0.005-0.021-0.012-0.032-0.012-0.032
		c0.005,0.008,0.013,0.019,0.021,0.031l0.001,0.001c0.034,0.043,0.093,0.108,0.135,0.154c0.205,0.225,0.461,0.504,0.461,0.886
		c-0.037,0.263,0.029,0.493,0.1,0.737c0.072,0.25,0.153,0.532,0.153,0.835c0,0.732,0.552,1.526,1.255,1.808
		c0.311,0.178,0.577,0.292,0.854,0.412c0.218,0.094,0.441,0.191,0.666,0.304c0.296,0.148,0.652,0.226,1.054,0.307
		c0.18,0.049,0.295,0.089,0.398,0.125c0.315,0.108,0.38,0.132,0.764-0.012l0.352,0.937C26.253,44.774,26.016,44.82,25.807,44.82z"/>
	<path d="M18.444,38.132c-0.502,0-1.128,0-1.61-0.362c-0.13-0.122-0.225-0.197-0.319-0.272c-0.124-0.099-0.246-0.199-0.346-0.297
		c-0.224-0.137-0.418-0.332-0.688-0.601c-0.287-0.228-0.549-0.508-0.825-0.805c-0.131-0.141-0.266-0.286-0.409-0.43
		c-0.144-0.111-0.314-0.273-0.482-0.433c-0.221-0.211-0.43-0.411-0.646-0.54c-0.197-0.152-0.35-0.267-0.501-0.38
		c-0.318-0.239-0.647-0.486-0.905-0.743c-0.081-0.082-0.269-0.27-0.349-0.306l0.091-0.985c0.353,0,0.645,0.264,0.964,0.582
		c0.208,0.208,0.509,0.434,0.799,0.651c0.161,0.121,0.321,0.241,0.472,0.362c0.256,0.148,0.516,0.396,0.766,0.635
		c0.147,0.14,0.296,0.283,0.458,0.413c0.194,0.189,0.336,0.342,0.476,0.492c0.25,0.269,0.487,0.523,0.747,0.731
		c0.298,0.293,0.446,0.441,0.664,0.586c0.151,0.138,0.246,0.212,0.34,0.287c0.124,0.1,0.248,0.2,0.348,0.3
		c0.163,0.116,0.604,0.116,0.957,0.116c0.341,0,0.722-0.152,1.125-0.314l0.128-0.05c0.291-0.113,0.896-0.349,0.981-0.604
		l0.949,0.316c-0.233,0.701-1.037,1.013-1.568,1.22l-0.119,0.047C19.468,37.936,18.979,38.132,18.444,38.132z"/>
	<path d="M24.389,25.425c-0.383,0-0.746-0.169-1.055-0.313c-0.093-0.043-0.183-0.085-0.27-0.12
		c-0.518-0.172-1.012-0.449-1.525-0.861c-0.273-0.18-0.51-0.479-0.648-0.831c-0.056-0.07-0.101-0.141-0.142-0.206
		c-0.026-0.043-0.28-0.107-0.299-0.125c0.016,0.016-0.075,0.049-0.075,0.049v-1c1,0,0.889,0.355,1.008,0.545
		c0.026,0.042,0.174,0.106,0.191,0.125l0.175,0.196c0.061,0.182,0.207,0.342,0.354,0.44c0.46,0.366,0.856,0.583,1.292,0.729
		c0.131,0.051,0.245,0.101,0.355,0.152c0.238,0.111,0.566,0.26,0.709,0.207l0.372,0.929C24.682,25.4,24.535,25.425,24.389,25.425z"
		/>
	<path d="M6.2,14.892v-0.358H5.7v-0.142l0.5-0.5c0.063,0,0.066-0.002,0.105-0.024c0.074-0.043,0.212-0.123,0.419-0.123v1
		c0.046,0,0.087-0.015,0.103-0.023C6.711,14.788,6.532,14.892,6.2,14.892z"/>
	<path d="M7.259,16.231l-0.153-0.544l0.421-0.411c0.221-0.061,0.454,0.001,0.612,0.159l-0.44,0.443l-0.044-0.044L7.259,16.231z"/>
	<path d="M8.02,15.253L7.6,15.071c-0.112-0.126-0.136-0.268-0.137-0.368H7.394v-0.136l0.62-0.252l0.006-0.061v0.059l0.232-0.095
		c0.11,0.104,0.268,0.251,0.268,0.536L8.02,15.253z"/>
	<path fill="none" stroke="#000000" stroke-linejoin="bevel" stroke-miterlimit="10" d="M9.096,15.615"/>
	<path d="M15.491,6.69c-0.036-0.011-0.137-0.011-0.191-0.011l-0.354-0.146c-0.06-0.006-0.169-0.031-0.274-0.109
		c-0.084-0.045-0.152-0.09-0.22-0.136c-0.049-0.033-0.098-0.066-0.163-0.099l-0.128-0.092c-0.168-0.167-0.379-0.376-0.588-0.688
		l0.83-0.558c0.129,0.192,0.255,0.328,0.411,0.484c0.072,0.04,0.133,0.081,0.193,0.121c0.05,0.033,0.099,0.067,0.165,0.1
		l0.128,0.092c0.035,0,0.084,0.01,0.14,0.033c0.256,0.011,0.645,0.076,0.83,0.45l-0.895,0.445
		C15.413,6.652,15.473,6.685,15.491,6.69z"/>
	<path d="M20.454,6.242v-1c-0.032-0.006,0.019-0.082,0.024-0.12l1,0.009C21.479,5.634,21.021,6.242,20.454,6.242z"/>
</g>
</svg>
