<?xml version="1.0" encoding="utf-8"?>
<!-- Generator: Adobe Illustrator 16.0.0, SVG Export Plug-In . SVG Version: 6.00 Build 0)  -->
<!DOCTYPE svg PUBLIC "-//W3C//DTD SVG 1.1//EN" "http://www.w3.org/Graphics/SVG/1.1/DTD/svg11.dtd">
<svg version="1.1" xmlns="http://www.w3.org/2000/svg" xmlns:xlink="http://www.w3.org/1999/xlink" x="0px" y="0px"
	 width="17.558px" height="16.408px" viewBox="0 0 17.558 16.408" enable-background="new 0 0 17.558 16.408" xml:space="preserve">
<g id="bckg_1_">
</g>
<g id="grid_1164" display="none">
</g>
<g id="grid_1000px_x2F_4co_x2F_20" display="none">
</g>
<g id="intro" display="none">
</g>
<g id="about" display="none">
</g>
<g id="MENU" display="none">
</g>
<g id="index" display="none">
</g>
<g id="OSA" display="none">
</g>
<g id="OSA_copy">
	<path fill-rule="evenodd" clip-rule="evenodd" d="M8.72,8.059c0,2.032,0.004,4.064-0.008,6.096
		c-0.001,0.208-0.109,0.414-0.167,0.621c-0.197-0.091-0.42-0.146-0.584-0.277c-1.209-0.962-2.411-1.935-3.606-2.916
		c-0.501-0.412-1.056-0.632-1.709-0.616c-0.591,0.015-1.184,0.012-1.774,0.002c-0.594-0.012-0.864-0.28-0.867-0.868
		c-0.006-1.304-0.007-2.608-0.001-3.911c0.002-0.602,0.254-0.846,0.864-0.854c0.561-0.007,1.123-0.009,1.684,0
		c0.699,0.012,1.292-0.219,1.824-0.68c1.191-1.033,2.398-2.047,3.611-3.055c0.158-0.132,0.385-0.181,0.58-0.268
		c0.051,0.195,0.146,0.391,0.147,0.586C8.724,3.966,8.72,6.013,8.72,8.059z"/>
	<path fill-rule="evenodd" clip-rule="evenodd" d="M13.007,1.158c0.401-0.407,0.771-0.783,1.14-1.158
		c4.56,4.473,4.519,12.033,0.052,16.408c-0.365-0.371-0.732-0.743-1.139-1.156c1.837-1.892,2.844-4.256,2.853-6.992
		C15.922,5.519,14.936,3.144,13.007,1.158z"/>
	<path fill-rule="evenodd" clip-rule="evenodd" d="M11.766,14.077c-0.364-0.379-0.729-0.758-1.093-1.137
		c2.342-2.45,2.714-6.513-0.019-9.45c0.371-0.374,0.744-0.747,1.116-1.12C15.142,5.612,14.882,11.203,11.766,14.077z"/>
</g>
<g id="OSA3" display="none">
</g>
<g id="detail_x5F_context" display="none">
</g>
<g id="detail_x5F_context_copy" display="none">
</g>
<g id="detail_x5F_context2" display="none">
</g>
<g id="detail_x5F_dílo" display="none">
</g>
<g id="detail_x5F_dílo_copy" display="none">
</g>
<g id="OSA2" display="none">
</g>
<g id="INFO" display="none">
</g>
<g id="INFO_copy" display="none">
</g>
<g id="bckgrnds" display="none">
</g>
<g id="Layer_6_copy_2" display="none">
</g>
<g id="browser_img">
</g>
<g id="top">
</g>
<g id="Layer_7" display="none">
</g>
</svg>
