<?xml version="1.0" encoding="utf-8"?>
<!-- Generator: Adobe Illustrator 16.0.0, SVG Export Plug-In . SVG Version: 6.00 Build 0)  -->
<!DOCTYPE svg PUBLIC "-//W3C//DTD SVG 1.1//EN" "http://www.w3.org/Graphics/SVG/1.1/DTD/svg11.dtd">
<svg version="1.1" xmlns="http://www.w3.org/2000/svg" xmlns:xlink="http://www.w3.org/1999/xlink" x="0px" y="0px"
	 width="16.408px" height="17.558px" viewBox="0 0 16.408 17.558" enable-background="new 0 0 16.408 17.558" xml:space="preserve">
<g id="bckg_1_">
</g>
<g id="grid_1164" display="none">
</g>
<g id="grid_1000px_x2F_4co_x2F_20" display="none">
</g>
<g id="intro" display="none">
</g>
<g id="about" display="none">
</g>
<g id="MENU" display="none">
</g>
<g id="index" display="none">
</g>
<g id="OSA" display="none">
</g>
<g id="OSA_copy">
	<g>
		<path fill-rule="evenodd" clip-rule="evenodd" d="M15.075,8.566c-0.087-0.195-0.136-0.421-0.268-0.58
			c-1.008-1.213-2.021-2.42-3.055-3.611c-0.461-0.532-0.691-1.125-0.68-1.824c0.009-0.561,0.007-1.123,0-1.684
			c-0.008-0.61-0.252-0.862-0.854-0.864C8.917-0.002,7.612-0.001,6.309,0.005C5.721,0.007,5.452,0.277,5.44,0.872
			c-0.01,0.591-0.013,1.183,0.002,1.774c0.016,0.653-0.204,1.208-0.616,1.709C3.845,5.55,2.872,6.752,1.91,7.961
			C1.779,8.125,1.724,8.349,1.633,8.545C1.84,8.603,2.046,8.711,2.254,8.712C4.285,8.725,6.317,8.72,8.35,8.72
			c2.046,0,4.093,0.004,6.14-0.007C14.685,8.712,14.88,8.618,15.075,8.566z"/>
		<path fill-rule="evenodd" clip-rule="evenodd" d="M16.408,14.147c-0.375-0.369-0.751-0.738-1.158-1.14
			c-1.985,1.929-4.36,2.915-7.102,2.906c-2.736-0.009-5.101-1.016-6.992-2.853C0.743,13.466,0.371,13.833,0,14.199
			C4.375,18.666,11.936,18.707,16.408,14.147z"/>
		<path fill-rule="evenodd" clip-rule="evenodd" d="M14.038,11.771c-0.373-0.372-0.746-0.745-1.12-1.116
			c-2.938,2.733-7,2.36-9.45,0.019c-0.379,0.364-0.758,0.729-1.137,1.093C5.205,14.882,10.796,15.142,14.038,11.771z"/>
	</g>
</g>
<g id="OSA3" display="none">
</g>
<g id="detail_x5F_context" display="none">
</g>
<g id="detail_x5F_context_copy" display="none">
</g>
<g id="detail_x5F_context2" display="none">
</g>
<g id="detail_x5F_dílo" display="none">
</g>
<g id="detail_x5F_dílo_copy" display="none">
</g>
<g id="OSA2" display="none">
</g>
<g id="INFO" display="none">
</g>
<g id="INFO_copy" display="none">
</g>
<g id="bckgrnds" display="none">
</g>
<g id="Layer_6_copy_2" display="none">
</g>
<g id="browser_img">
</g>
<g id="top">
</g>
<g id="Layer_7" display="none">
</g>
</svg>
