<?xml version="1.0" encoding="utf-8"?>
<!-- Generator: Adobe Illustrator 16.0.0, SVG Export Plug-In . SVG Version: 6.00 Build 0)  -->
<!DOCTYPE svg PUBLIC "-//W3C//DTD SVG 1.1//EN" "http://www.w3.org/Graphics/SVG/1.1/DTD/svg11.dtd">
<svg version="1.1" xmlns="http://www.w3.org/2000/svg" xmlns:xlink="http://www.w3.org/1999/xlink" x="0px" y="0px"
	 width="17.558px" height="16.408px" viewBox="0 0 17.558 16.408" enable-background="new 0 0 17.558 16.408" xml:space="preserve">
<g id="HP">
	<g>
		<path fill-rule="evenodd" clip-rule="evenodd" fill="#FFFFFF" d="M8.72,8.06c0,2.032,0.004,4.063-0.008,6.095
			c-0.001,0.209-0.109,0.414-0.167,0.622c-0.197-0.091-0.42-0.146-0.584-0.278c-1.209-0.961-2.411-1.934-3.606-2.916
			c-0.501-0.412-1.056-0.631-1.709-0.615c-0.591,0.016-1.184,0.011-1.774,0.002c-0.594-0.012-0.864-0.281-0.867-0.869
			c-0.006-1.303-0.007-2.608-0.001-3.91c0.002-0.602,0.254-0.846,0.864-0.854c0.561-0.006,1.123-0.01,1.684,0
			c0.699,0.012,1.292-0.219,1.824-0.68c1.191-1.033,2.398-2.047,3.611-3.055c0.158-0.133,0.385-0.182,0.58-0.268
			C8.618,1.529,8.712,1.725,8.713,1.92C8.724,3.967,8.72,6.014,8.72,8.06z"/>
		<path fill-rule="evenodd" clip-rule="evenodd" fill="#FFFFFF" d="M13.007,1.159c0.401-0.407,0.771-0.783,1.14-1.159
			c4.56,4.473,4.519,12.033,0.052,16.408c-0.365-0.371-0.732-0.742-1.139-1.156c1.837-1.891,2.844-4.254,2.853-6.992
			C15.922,5.519,14.936,3.144,13.007,1.159z"/>
		<path fill-rule="evenodd" clip-rule="evenodd" fill="#FFFFFF" d="M11.766,14.078c-0.364-0.379-0.729-0.758-1.093-1.137
			c2.342-2.45,2.714-6.514-0.019-9.45c0.371-0.374,0.744-0.748,1.116-1.12C15.142,5.613,14.882,11.203,11.766,14.078z"/>
	</g>
</g>
<g id="osa" display="none">
</g>
<g id="osa_copy" display="none">
</g>
<g id="context" display="none">
</g>
<g id="dilo" display="none">
</g>
<g id="dilo_copy" display="none">
</g>
<g id="dilo_copy_2" display="none">
</g>
<g id="dilo_copy_3" display="none">
</g>
<g id="about" display="none">
</g>
<g id="register" display="none">
</g>
<g id="register_copy" display="none">
</g>
<g id="register_copy_2" display="none">
</g>
</svg>
